<?xml version="1.0" encoding="utf-8"?>
<!-- Generator: Adobe Illustrator 25.2.1, SVG Export Plug-In . SVG Version: 6.00 Build 0)  -->
<svg version="1.1" id="Layer_1" xmlns="http://www.w3.org/2000/svg" xmlns:xlink="http://www.w3.org/1999/xlink" x="0px" y="0px"
	 viewBox="0 0 763.11 211.42" style="enable-background:new 0 0 763.11 211.42;" xml:space="preserve">
<style type="text/css">
	.st0{fill:#D57A66;}
</style>
<path class="st0" d="M191.37,19.79c-12.9-12.9-30.59-20.11-48.55-19.78c-18.2,0.33-35.16,7.45-47.76,20.05
	C82.32,32.8,75.01,50.31,75.01,68.08c0,2.55,0.15,5.09,0.45,7.62c-2.53-0.28-5.08-0.42-7.64-0.42c-17.78,0-35.18,7.21-47.75,19.78
	C7.35,107.77,0.05,125.22,0.01,142.95c-0.3,17.95,6.92,35.56,19.78,48.42c12.93,12.93,30.17,20.05,48.56,20.05l142.78-0.3
	l0.3-142.64c0-0.34,0.01-0.69,0.01-1.03C211.43,49.89,204.16,32.58,191.37,19.79z M182.19,182.19l-113.85,0.24
	c-10.63,0-20.59-4.11-28.04-11.56c-7.36-7.36-11.48-17.41-11.29-27.52l0-0.26c0-10.14,4.21-20.17,11.56-27.52
	c7.17-7.17,17.11-11.29,27.25-11.29c0.24,0,0.49,0.01,0.73,0.02h32.8h2.78v-2.78V70.83c-0.07-0.91-0.11-1.83-0.11-2.75
	c0-10.14,4.21-20.17,11.56-27.52c7.26-7.26,17.13-11.37,27.78-11.56c10.13-0.18,20.16,3.93,27.52,11.29
	c7.53,7.53,11.73,17.67,11.56,27.79L182.19,182.19z"/>
<g>
	<path class="st0" d="M322.41,211.42c-8.4,0-15.68-1.27-21.83-3.82c-6.15-2.54-11.18-6.48-15.08-11.8
		c-4.02-5.32-7.01-12.16-8.96-20.5c-1.95-8.34-2.93-18.37-2.93-30.08c0-11.59,0.92-21.56,2.75-29.9c1.83-8.34,4.7-15.17,8.61-20.5
		c3.9-5.32,8.93-9.26,15.08-11.8c6.15-2.54,13.54-3.82,22.18-3.82c8.75,0,16.24,1.27,22.45,3.82c6.21,2.54,11.33,6.48,15.35,11.8
		c4.02,5.32,6.95,12.16,8.78,20.5c1.83,8.34,2.75,18.31,2.75,29.9c0,11.71-0.98,21.74-2.93,30.08c-1.95,8.34-4.88,15.17-8.78,20.5
		c-4.02,5.32-9.14,9.25-15.35,11.8C338.3,210.15,330.93,211.42,322.41,211.42z M303.07,145.24c0,7.45,0.29,13.75,0.88,18.9
		c0.59,5.15,1.65,9.38,3.18,12.69c1.41,3.19,3.39,5.53,5.92,7.01c2.53,1.48,5.68,2.22,9.45,2.22c4,0,7.3-0.74,9.89-2.22
		c2.59-1.48,4.65-3.82,6.18-7.01c1.41-3.31,2.42-7.54,3-12.69c0.59-5.15,0.88-11.45,0.88-18.9c0-7.21-0.32-13.4-0.97-18.54
		c-0.65-5.15-1.74-9.37-3.27-12.69c-1.53-3.31-3.59-5.71-6.18-7.19c-2.59-1.48-5.83-2.22-9.71-2.22c-3.77,0-6.86,0.74-9.27,2.22
		c-2.42,1.48-4.39,3.88-5.92,7.19c-1.53,3.31-2.59,7.54-3.18,12.69C303.37,131.84,303.07,138.02,303.07,145.24z"/>
	<path class="st0" d="M503.11,85.26h29.46v6.39c3.3-2.6,6.97-4.88,10.98-6.83c4.01-1.95,8.74-2.93,14.18-2.93
		c6.02,0,11.58,1.13,16.66,3.37c5.08,2.25,9.15,5.86,12.22,10.83c3.9-3.79,8.56-7.1,14-9.94s11.4-4.26,17.9-4.26
		c4.61,0,8.98,0.65,13.11,1.95c4.13,1.3,7.8,3.37,10.99,6.21c3.07,2.84,5.52,6.51,7.35,11c1.83,4.5,2.75,9.88,2.75,16.15v94.22
		h-29.1v-92.1c0-3.55-0.71-6.36-2.13-8.43c-1.42-2.07-3.96-3.16-7.63-3.28c-3.43-0.12-7.13,0.95-11.09,3.19
		c-3.96,2.25-7.6,4.97-10.91,8.16v92.45h-29.1v-92.1c0-3.55-0.71-6.36-2.12-8.43c-1.41-2.07-3.94-3.16-7.58-3.28
		c-3.18-0.12-6.59,0.8-10.23,2.75c-3.65,1.95-7.06,4.41-10.23,7.36v93.69h-29.46V85.26z"/>
	<path class="st0" d="M455.14,82.24V177c-2.72,2.01-6.18,3.99-10.38,5.94c-4.2,1.95-8.84,2.87-13.93,2.75
		c-3.67-0.12-6.6-1.15-8.78-3.11c-2.19-1.95-3.28-4.7-3.28-8.25v-92.1h-29.1v94.23c0,5.91,1.03,11.03,3.11,15.35
		c2.07,4.32,4.82,7.96,8.25,10.91c3.43,2.96,7.33,5.15,11.71,6.57c4.38,1.42,8.87,2.13,13.49,2.13c10.65,0,20.29-3.08,28.92-9.23
		v1.87v4.34v3.02h29.46v-3.02v-4.34V82.24H455.14z"/>
	<path class="st0" d="M760.88,99.28c-1.48-4.02-3.88-7.57-7.2-10.65c-3.44-3.08-7.89-5.56-13.34-7.45
		c-5.45-1.89-12.15-2.78-20.09-2.66c-6.28,0.12-12.15,0.86-17.6,2.22c-5.45,1.36-10.2,3.52-14.22,6.48
		c-4.15,3.08-7.41,7.04-9.78,11.89c-2.37,4.85-3.62,10.77-3.73,17.75h29.99c0.36-5.79,1.8-9.67,4.35-11.62
		c2.54-1.95,5.94-2.93,10.2-2.93c5.56,0,9.32,1.45,11.27,4.35c1.95,2.9,2.93,7.01,2.93,12.33v9.23c-9.58,0.36-18.19,1.42-25.82,3.19
		c-7.63,1.77-14.17,4.38-19.61,7.81c-5.44,3.55-9.64,7.99-12.6,13.31c-2.96,5.32-4.5,11.77-4.61,19.34
		c-0.12,6.03,0.41,11.47,1.6,16.33c1.18,4.85,3.13,9.05,5.86,12.6c2.72,3.43,6.27,6.06,10.65,7.9c4.38,1.83,9.7,2.75,15.97,2.75
		c5.32,0,10.5-0.8,15.53-2.4c5.03-1.6,9.38-3.7,13.04-6.3v1.67v3.83v3.19h29.46v-3.19v-3.83v-92.7
		C763.11,107.44,762.36,103.3,760.88,99.28z M721.67,185.34c-3.96,1.77-7.66,2.66-11.09,2.66c-3.43,0-6.09-1.24-7.99-3.73
		c-1.89-2.48-2.72-6.51-2.48-12.07c0.12-3.55,1.07-6.54,2.84-8.96c1.77-2.42,4.2-4.46,7.28-6.12c2.96-1.54,6.45-2.66,10.47-3.37
		c4.02-0.71,8.34-1.12,12.95-1.24v26.08C729.63,181.32,725.64,183.56,721.67,185.34z"/>
</g>
</svg>
