<?xml version="1.0" encoding="UTF-8"?> <svg xmlns="http://www.w3.org/2000/svg" viewBox="0 0 377.37 118.03"><defs><style>.cls-1{fill:#202020;}.cls-2{fill:none;stroke:#202020;stroke-linecap:round;stroke-width:0.75px;}</style></defs><g id="Layer_2" data-name="Layer 2"><g id="Layer_1-2" data-name="Layer 1"><path class="cls-1" d="M51.26,46.5c0,5.34,6.75,6.28,11.39,7.71,9.51,2.94,17.61,4.56,17.61,16.09,0,12.09-9.9,15.65-22.35,15.23a87,87,0,0,1-18.7-3.13l1.45-8.34c4.34.89,9.76,2.21,14.23,2.37s13,.46,13-5.71c0-6-5.89-6.66-11.08-8.12C47.91,60.12,39.4,58,39.4,47.1c0-11.16,8.6-14.35,19.65-14.35a73,73,0,0,1,19.23,2.46l-1.41,7.92A74.28,74.28,0,0,0,63.62,41.3c-4.5-.15-12.36,0-12.36,5.2m55.2,12.66a47.58,47.58,0,1,0-47.58,47.58,47.58,47.58,0,0,0,47.58-47.58"></path><path class="cls-1" d="M160.83,34.05V71.12c0,6.78,5.23,10.42,13.28,9.14a38.89,38.89,0,0,0,5.21-1.3l-1.41-4.52c-.88.21-1.73.38-2.64.53-4.51.72-7.17,0-7.17-4.53V48.34h10.63V43.47H168.1V33Z"></path><path class="cls-1" d="M326,34.05V71.12c0,6.78,5.23,10.42,13.28,9.14a39,39,0,0,0,5.22-1.3l-1.42-4.52c-.87.21-1.73.38-2.64.53-4.5.72-7.17,0-7.17-4.53V48.34h10.63V43.47H333.31V33Z"></path><path class="cls-1" d="M216.36,71.35V54.41c0-9.32-7-11.44-16.1-11.44a104.78,104.78,0,0,0-15.55,1.31l.62,4.83a117.55,117.55,0,0,1,14-1c7.86,0,9.91,2.54,9.91,8.15V69.15c0,1.7,0,3.78-.19,5.43a30.78,30.78,0,0,1-10.2,1.47c-6.78,0-10-1.25-10-6.46,0-4.74,1.85-6.2,6.44-7.07a82.42,82.42,0,0,1,10.81-.86V57.41c-5.41.16-9.67.26-13.51.76-7.79,1-10.17,4.76-10.17,11.18,0,7.84,4.06,11.65,15.43,11.65,7.25,0,13.33-.87,18.19-3.1.18-2.14.28-4.26.28-6.55"></path><path class="cls-1" d="M230.25,55.13c0-1.72.05-3.8.21-5.41a26.2,26.2,0,0,1,8.29-1.54c7.79,0,9.54,3,9.54,9.29v23h7.25V56.6a19.47,19.47,0,0,0-.85-6.34,24,24,0,0,1,9.37-2.08c7.8,0,9.55,3,9.55,9.29v23h7.24V56.6c0-7.38-1.89-13.58-14.8-13.58a41,41,0,0,0-14.61,2.67C249.24,44,245.86,43,240.74,43a50.87,50.87,0,0,0-17.45,3.15c-.17,2.14-.29,4.25-.29,6.53V80.46h7.25Z"></path><path class="cls-1" d="M364.8,48.13a56.3,56.3,0,0,1,9.79,1l.69-4.79A59.16,59.16,0,0,0,362.13,43c-8.43,0-14.73,2.25-14.73,10.17s6.15,9.23,12.83,11c5.35,1.41,9.38,2,9.38,6.51,0,5.13-6.13,5.09-10.34,5.09a67.35,67.35,0,0,1-10.24-1l-.71,4.89A65.48,65.48,0,0,0,361.5,81C370.71,81,377,78.69,377,70.36c0-7.45-5.28-9-13.16-11.25-4.86-1.35-9.57-2-9.57-6.43s6.37-4.55,10.54-4.55"></path><path class="cls-1" d="M143.53,48.13a57.39,57.39,0,0,1,9.89,1l.69-4.79A60.23,60.23,0,0,0,140.83,43C132.32,43,126,45.22,126,53.14s6.21,9.23,13,11c5.41,1.41,9.48,2,9.48,6.51,0,5.13-6.19,5.09-10.44,5.09a68.8,68.8,0,0,1-10.35-1l-.71,4.89A66.74,66.74,0,0,0,140.19,81c9.31,0,15.66-2.31,15.66-10.64,0-7.45-5.34-9-13.3-11.25-4.9-1.35-9.66-2-9.66-6.43s6.43-4.55,10.64-4.55"></path><path class="cls-1" d="M320,71.35V54.41c0-9.32-7-11.44-16.1-11.44a104.78,104.78,0,0,0-15.55,1.31l.62,4.83a117.55,117.55,0,0,1,14-1c7.86,0,9.91,2.54,9.91,8.15V69.15c0,1.7,0,3.78-.19,5.43a30.78,30.78,0,0,1-10.2,1.47c-6.77,0-9.95-1.25-9.95-6.46,0-4.74,1.85-6.2,6.44-7.07a82.42,82.42,0,0,1,10.81-.86V57.41c-5.41.16-9.67.26-13.51.76-7.79,1-10.17,4.76-10.17,11.18,0,7.84,4.06,11.65,15.43,11.65,7.25,0,13.33-.87,18.19-3.1.19-2.14.28-4.26.28-6.55"></path><path class="cls-2" d="M112.7,35.39a58.63,58.63,0,1,0-5.78,57.49H377"></path></g></g></svg>