<?xml version="1.0" encoding="UTF-8" standalone="no"?>
<svg
   xmlns:dc="http://purl.org/dc/elements/1.1/"
   xmlns:cc="http://creativecommons.org/ns#"
   xmlns:rdf="http://www.w3.org/1999/02/22-rdf-syntax-ns#"
   xmlns:svg="http://www.w3.org/2000/svg"
   xmlns="http://www.w3.org/2000/svg"
   xmlns:sodipodi="http://sodipodi.sourceforge.net/DTD/sodipodi-0.dtd"
   xmlns:inkscape="http://www.inkscape.org/namespaces/inkscape"
   width="150mm"
   height="150mm"
   viewBox="0 0 150 150"
   version="1.1"
   id="svg2105"
   inkscape:version="1.0.1 (3bc2e813f5, 2020-09-07)"
   sodipodi:docname="design.svg">
  <defs
     id="defs2099">
    <clipPath
       clipPathUnits="userSpaceOnUse"
       id="clipPath364">
      <path
         d="M 555.488,2847.98 H 369.016 c -9.895,0 -17.993,-8.1 -17.993,-18.01 0,9.91 -8.101,18.01 -17.996,18.01 H 329.52 308.027 146.543 c -3.281,0 -5.984,-2.7 -5.984,-6.02 v -305.94 c 0,-3.3 2.703,-6 5.984,-6 h 12.004 3.504 21.504 124.472 21.493 3.507 12 c 3.286,0 5.981,1.46 5.996,3.26 0,-1.8 2.7,-3.26 5.989,-3.26 h 12.004 3.504 21.496 124.468 21.504 3.496 12.004 c 3.289,0 5.996,2.7 5.996,6 v 305.94 c 0,3.32 -2.707,6.02 -5.996,6.02 z"
         id="path362" />
    </clipPath>
    <linearGradient
       x1="0"
       y1="0"
       x2="1"
       y2="0"
       gradientUnits="userSpaceOnUse"
       gradientTransform="matrix(-1.39e-5,317.964,317.964,1.39e-5,351.021,2561.24)"
       spreadMethod="pad"
       id="linearGradient372">
      <stop
         style="stop-opacity:1;stop-color:#cdeffa"
         offset="0"
         id="stop366" />
      <stop
         style="stop-opacity:1;stop-color:#fafafa"
         offset="0.97400384"
         id="stop368" />
      <stop
         style="stop-opacity:1;stop-color:#fafafa"
         offset="1"
         id="stop370" />
    </linearGradient>
    <clipPath
       clipPathUnits="userSpaceOnUse"
       id="clipPath428">
      <path
         d="m 425.852,2375.7 c 0,25.84 -20.957,46.78 -46.782,46.78 v -58.29 h 46.782 z"
         id="path426" />
    </clipPath>
    <linearGradient
       x1="0"
       y1="0"
       x2="1"
       y2="0"
       gradientUnits="userSpaceOnUse"
       gradientTransform="matrix(-2.5e-6,58.2959,58.2959,2.5e-6,402.461,2364.19)"
       spreadMethod="pad"
       id="linearGradient436">
      <stop
         style="stop-opacity:1;stop-color:#cdeffa"
         offset="0"
         id="stop430" />
      <stop
         style="stop-opacity:1;stop-color:#fafafa"
         offset="0.97400384"
         id="stop432" />
      <stop
         style="stop-opacity:1;stop-color:#fafafa"
         offset="1"
         id="stop434" />
    </linearGradient>
    <clipPath
       clipPathUnits="userSpaceOnUse"
       id="clipPath456">
      <path
         d="m 611.301,2735.87 c -3.547,-4.83 -7.231,-8.14 -12.649,-4.14 l -37.839,27.94 c -5.415,3.99 -3.313,8.49 0.222,13.33 3.582,4.79 7.258,8.11 12.649,4.12 l 37.859,-27.94 c 5.41,-4 3.32,-8.48 -0.242,-13.31 z"
         id="path454" />
    </clipPath>
    <linearGradient
       x1="0"
       y1="0"
       x2="1"
       y2="0"
       gradientUnits="userSpaceOnUse"
       gradientTransform="matrix(50.2695,-37.1163,-37.1163,-50.2695,561.03,2772.99)"
       spreadMethod="pad"
       id="linearGradient464">
      <stop
         style="stop-opacity:1;stop-color:#bdbdbd"
         offset="0"
         id="stop458" />
      <stop
         style="stop-opacity:1;stop-color:#707070"
         offset="0.45943003"
         id="stop460" />
      <stop
         style="stop-opacity:1;stop-color:#707070"
         offset="1"
         id="stop462" />
    </linearGradient>
    <clipPath
       clipPathUnits="userSpaceOnUse"
       id="clipPath474">
      <path
         d="m 516.797,2660.47 c -2.207,1.61 -4.617,2.71 -7.024,3.27 -4.429,-9.15 -6.328,-16.27 -3.894,-18.06 2.422,-1.8 8.672,2.11 16.113,9.04 -1.238,2.14 -3,4.12 -5.195,5.75 z"
         id="path472" />
    </clipPath>
    <linearGradient
       x1="0"
       y1="0"
       x2="1"
       y2="0"
       gradientUnits="userSpaceOnUse"
       gradientTransform="matrix(12.2207,-9.02312,-9.02312,-12.2207,505.225,2657.58)"
       spreadMethod="pad"
       id="linearGradient482">
      <stop
         style="stop-opacity:1;stop-color:#286891"
         offset="0"
         id="stop476" />
      <stop
         style="stop-opacity:1;stop-color:#0e3655"
         offset="0.45943003"
         id="stop478" />
      <stop
         style="stop-opacity:1;stop-color:#0e3655"
         offset="1"
         id="stop480" />
    </linearGradient>
    <clipPath
       clipPathUnits="userSpaceOnUse"
       id="clipPath500">
      <path
         d="m 113.563,2632.67 c 2.832,-3.83 5.761,-6.48 10.082,-3.29 l 30.156,22.26 c 4.312,3.19 2.644,6.76 -0.18,10.62 -2.851,3.83 -5.777,6.47 -10.074,3.29 l -30.168,-22.27 c -4.316,-3.19 -2.656,-6.76 0.184,-10.61 z"
         id="path498" />
    </clipPath>
    <linearGradient
       x1="0"
       y1="0"
       x2="1"
       y2="0"
       gradientUnits="userSpaceOnUse"
       gradientTransform="matrix(-40.06,-29.5782,29.5782,-40.06,153.628,2662.25)"
       spreadMethod="pad"
       id="linearGradient508">
      <stop
         style="stop-opacity:1;stop-color:#bdbdbd"
         offset="0"
         id="stop502" />
      <stop
         style="stop-opacity:1;stop-color:#707070"
         offset="0.45943003"
         id="stop504" />
      <stop
         style="stop-opacity:1;stop-color:#707070"
         offset="1"
         id="stop506" />
    </linearGradient>
  </defs>
  <sodipodi:namedview
     id="base"
     pagecolor="#ffffff"
     bordercolor="#666666"
     borderopacity="1.0"
     inkscape:pageopacity="0.0"
     inkscape:pageshadow="2"
     inkscape:zoom="1.979899"
     inkscape:cx="308.97888"
     inkscape:cy="257.95572"
     inkscape:document-units="mm"
     inkscape:current-layer="layer1"
     inkscape:document-rotation="0"
     showgrid="false"
     inkscape:window-width="3840"
     inkscape:window-height="2093"
     inkscape:window-x="-9"
     inkscape:window-y="-9"
     inkscape:window-maximized="1" />
  <metadata
     id="metadata2102">
    <rdf:RDF>
      <cc:Work
         rdf:about="">
        <dc:format>image/svg+xml</dc:format>
        <dc:type
           rdf:resource="http://purl.org/dc/dcmitype/StillImage" />
        <dc:title></dc:title>
      </cc:Work>
    </rdf:RDF>
  </metadata>
  <g
     inkscape:label="Layer 1"
     inkscape:groupmode="layer"
     id="layer1">
    <path
       d="m 50.447893,18.511626 c 0.007,0.415927 -0.245378,0.741419 -0.550002,0.741419 l -2.883958,-0.02195 c -0.314878,-0.0052 -0.542973,-0.33832 -0.539898,-0.746631 l 0.01977,-2.32494 c -0.0052,-0.407872 0.247213,-0.73622 0.550002,-0.73622 l 2.878017,0.02929 c 0.308721,-0.0052 0.549709,0.333181 0.54583,0.741419 l -0.02051,2.319744"
       style="fill:#1c4670;fill-opacity:1;fill-rule:nonzero;stroke:none;stroke-width:0.258327"
       id="path250" />
    <path
       d="m 50.270164,41.169511 c 0.0031,-0.405675 -0.240987,-0.741417 -0.541728,-0.743981 l -2.888094,-0.02195 c -0.297813,-0.0052 -0.550002,0.333181 -0.550002,0.738855 l -0.01316,2.322304 c -0.007,0.402748 0.234035,0.736293 0.532944,0.746618 l 2.896099,0.01466 c 0.299645,0.0025 0.544806,-0.32586 0.54173,-0.728603 l 0.02195,-2.330067"
       style="fill:#1c4670;fill-opacity:1;fill-rule:nonzero;stroke:none;stroke-width:0.258327"
       id="path252" />
    <path
       d="m 44.511293,18.994701 c 0.210015,0.358809 0.161466,0.759505 -0.110793,0.909326 l -2.507837,1.42594 c -0.257316,0.147185 -0.63546,-0.01466 -0.839565,-0.371988 L 39.904834,18.930115 C 39.70002,18.576431 39.75062,18.17061 40.012771,18.018226 l 2.510687,-1.418177 c 0.264277,-0.155243 0.645785,0.01466 0.84447,0.369063 l 1.143358,2.025296"
       style="fill:#1c4670;fill-opacity:1;fill-rule:nonzero;stroke:none;stroke-width:0.258327"
       id="path254" />
    <path
       d="m 55.683916,38.707637 c -0.19683,-0.36174 -0.57402,-0.532358 -0.832329,-0.380045 l -2.514809,1.420813 c -0.264277,0.155243 -0.315682,0.555053 -0.111086,0.917015 l 1.14852,2.020172 c 0.200717,0.351488 0.582297,0.5243 0.836467,0.377115 l 2.517649,-1.425937 c 0.260391,-0.147185 0.308728,-0.557985 0.109025,-0.91189 l -1.153411,-2.017536"
       style="fill:#1c4670;fill-opacity:1;fill-rule:nonzero;stroke:none;stroke-width:0.258327"
       id="path256" />
    <path
       d="m 39.614191,22.37359 c 0.35932,0.204303 0.514564,0.586544 0.361373,0.847377 l -1.455147,2.482451 c -0.161467,0.268743 -0.568088,0.307548 -0.926366,0.103256 L 35.594089,24.623475 C 35.242748,24.416976 35.076377,24.03986 35.242748,23.776171 l 1.455157,-2.48765 c 0.152386,-0.258488 0.563186,-0.302428 0.91112,-0.09007 l 2.005129,1.175358"
       style="fill:#1c4670;fill-opacity:1;fill-rule:nonzero;stroke:none;stroke-width:0.258327"
       id="path258" />
    <path
       d="m 59.140072,33.851109 c -0.348269,-0.204301 -0.758707,-0.157438 -0.912148,0.09519 l -1.456194,2.49285 c -0.164528,0.260683 0.0031,0.635605 0.361367,0.844741 l 1.999971,1.177921 c 0.350015,0.206497 0.764906,0.162564 0.918098,-0.08787 l 1.458245,-2.495413 c 0.154488,-0.260684 -0.0068,-0.637802 -0.363175,-0.847303 l -2.006183,-1.180559"
       style="fill:#1c4670;fill-opacity:1;fill-rule:nonzero;stroke:none;stroke-width:0.258327"
       id="path260" />
    <path
       d="m 37.059336,27.752002 c 0.410507,0 0.736498,0.245311 0.736498,0.547732 l -0.01977,2.890615 c -0.0053,0.299496 -0.346142,0.542611 -0.744757,0.537484 l -2.328046,-0.01465 c -0.410508,-0.0074 -0.739588,-0.253364 -0.731606,-0.555057 l 0.01834,-2.882926 c 0,-0.304623 0.336843,-0.544807 0.745534,-0.53968 l 2.324164,0.01466"
       style="fill:#1c4670;fill-opacity:1;fill-rule:nonzero;stroke:none;stroke-width:0.258327"
       id="path262" />
    <path
       d="m 59.718202,27.927673 c -0.406646,0 -0.743714,0.243115 -0.754566,0.537484 l -0.02183,2.893325 c 0.0048,0.299496 0.332988,0.547732 0.739584,0.549934 l 2.328045,0.01466 c 0.406647,-0.0052 0.736491,-0.237988 0.743458,-0.544807 l 0.02121,-2.882927 c 0.01,-0.302427 -0.322947,-0.549933 -0.731827,-0.555789 l -2.323903,-0.01466"
       style="fill:#1c4670;fill-opacity:1;fill-rule:nonzero;stroke:none;stroke-width:0.258327"
       id="path264" />
    <path
       d="m 37.5437,33.680566 c 0.344895,-0.196245 0.751736,-0.147185 0.903116,0.113498 l 1.422599,2.513573 c 0.153483,0.258488 -0.01466,0.635606 -0.370161,0.836979 l -2.026312,1.146949 c -0.350022,0.206497 -0.761805,0.155236 -0.913186,-0.1135 l -1.422864,-2.505813 c -0.141328,-0.263615 0.01977,-0.640732 0.37331,-0.842104 l 2.03355,-1.149582"
       style="fill:#1c4670;fill-opacity:1;fill-rule:nonzero;stroke:none;stroke-width:0.258327"
       id="path266" />
    <path
       d="m 57.241114,22.510524 c -0.35831,0.204303 -0.514857,0.578492 -0.380451,0.842178 l 1.436815,2.508299 c 0.147502,0.263616 0.558203,0.317803 0.901296,0.111305 l 2.033287,-1.144383 c 0.358062,-0.201371 0.521593,-0.578492 0.376398,-0.839542 L 60.179603,21.472246 C 60.033159,21.206435 59.63063,21.167623 59.264354,21.36387 l -2.023209,1.146946"
       style="fill:#1c4670;fill-opacity:1;fill-rule:nonzero;stroke:none;stroke-width:0.258327"
       id="path268" />
    <path
       d="m 40.913829,38.583591 c 0.206941,-0.348556 0.582297,-0.508926 0.847831,-0.36174 l 2.492337,1.462113 c 0.257316,0.157439 0.305865,0.563112 0.08575,0.917015 l -1.177453,2.004648 c -0.210015,0.353683 -0.583325,0.514053 -0.840596,0.35881 l -2.485367,-1.459548 c -0.271524,-0.152311 -0.304842,-0.560915 -0.09995,-0.91189 l 1.177452,-2.009846"
       style="fill:#1c4670;fill-opacity:1;fill-rule:nonzero;stroke:none;stroke-width:0.258327"
       id="path270" />
    <path
       d="m 52.395417,19.056724 c -0.197859,0.351487 -0.161461,0.756869 0.09585,0.914452 l 2.494401,1.456988 c 0.257317,0.157438 0.638829,-0.0073 0.845766,-0.356615 l 1.174349,-2.004573 c 0.206941,-0.351488 0.167586,-0.764631 -0.09973,-0.914452 L 54.4225,16.690337 c -0.257316,-0.150114 -0.632677,0.0074 -0.847567,0.353684 l -1.179526,2.012409"
       style="fill:#1c4670;fill-opacity:1;fill-rule:nonzero;stroke:none;stroke-width:0.258327"
       id="path272" />
    <path
       d="m 48.310499,37.837047 c -4.429789,-0.02929 -7.984876,-3.644994 -7.946389,-8.072707 0.03002,-4.422514 3.647837,-7.97971 8.067542,-7.951298 4.429785,0.03661 7.983845,3.650194 7.944584,8.077907 -0.03368,4.427712 -3.63776,7.982272 -8.065737,7.946098 z m 0.15136,-20.177924 c -6.715466,-0.05126 -12.208007,5.357763 -12.263286,12.071679 -0.05052,6.71648 5.350986,12.213665 12.076777,12.262727 6.717272,0.05126 12.214981,-5.349926 12.265357,-12.071606 0.05272,-6.719042 -5.351238,-12.211102 -12.078841,-12.2628"
       style="fill:#1c4670;fill-opacity:1;fill-rule:nonzero;stroke:none;stroke-width:0.258327"
       id="path274" />
    <path
       d="m 134.2093,90.502124 c 0.003,0.302428 -0.17974,0.534566 -0.39854,0.534566 l -2.08392,-0.01434 c -0.22708,-0.0025 -0.39342,-0.240183 -0.39342,-0.534565 l 0.0156,-1.679082 c 0,-0.297314 0.18162,-0.534565 0.40041,-0.532383 l 2.08186,0.01434 c 0.21985,0 0.39548,0.240184 0.39162,0.537497 l -0.0131,1.673962"
       style="fill:#1c4670;fill-opacity:1;fill-rule:nonzero;stroke:none;stroke-width:0.258327"
       id="path276" />
    <path
       d="m 134.08118,106.87747 c 0,-0.29439 -0.17769,-0.5375 -0.39162,-0.5375 l -2.08882,-0.0144 c -0.21698,0 -0.39854,0.24311 -0.39854,0.53238 l -0.01,1.68427 c -0.003,0.28703 0.16839,0.52946 0.38538,0.53457 l 2.09503,0.0143 c 0.21673,0.002 0.39243,-0.23288 0.39036,-0.5272 l 0.0181,-1.68172"
       style="fill:#1c4670;fill-opacity:1;fill-rule:nonzero;stroke:none;stroke-width:0.258327"
       id="path278" />
    <path
       d="m 129.91747,90.850898 c 0.15137,0.255588 0.11725,0.547726 -0.0796,0.661236 l -1.81241,1.025536 c -0.18855,0.106156 -0.4611,-0.0075 -0.60735,-0.268748 l -0.82949,-1.462113 c -0.14931,-0.258458 -0.11208,-0.552839 0.0778,-0.659035 l 1.81422,-1.028174 c 0.19067,-0.111328 0.46808,0.01434 0.61247,0.265818 l 0.82432,1.46475"
       style="fill:#1c4670;fill-opacity:1;fill-rule:nonzero;stroke:none;stroke-width:0.258327"
       id="path280" />
    <path
       d="m 137.99328,105.09498 c -0.14133,-0.26069 -0.41563,-0.38007 -0.60348,-0.27092 l -1.81836,1.02297 c -0.19172,0.11644 -0.22503,0.40565 -0.0786,0.66416 l 0.82845,1.45955 c 0.14832,0.25845 0.42268,0.38226 0.60431,0.27605 l 1.8214,-1.03331 c 0.18786,-0.10318 0.22216,-0.40271 0.0788,-0.65903 l -0.83259,-1.45955"
       style="fill:#1c4670;fill-opacity:1;fill-rule:nonzero;stroke:none;stroke-width:0.258327"
       id="path282" />
    <path
       d="m 126.38175,93.294687 c 0.25415,0.145008 0.36842,0.426169 0.25627,0.609969 l -1.04829,1.79536 c -0.11907,0.19403 -0.41488,0.22478 -0.67112,0.0732 l -1.44611,-0.85249 c -0.2521,-0.15013 -0.3764,-0.42106 -0.2521,-0.61509 l 1.05244,-1.795367 c 0.11108,-0.185985 0.40558,-0.219664 0.65588,-0.06593 l 1.45308,0.849865"
       style="fill:#1c4670;fill-opacity:1;fill-rule:nonzero;stroke:none;stroke-width:0.258327"
       id="path284" />
    <path
       d="m 140.48769,101.59213 c -0.24905,-0.15231 -0.54686,-0.11863 -0.6559,0.0659 l -1.0545,1.79793 c -0.11805,0.1911 0.003,0.46277 0.26346,0.61215 l 1.4451,0.84994 c 0.25209,0.15012 0.55178,0.11863 0.66079,-0.0659 l 1.05166,-1.80057 c 0.11395,-0.18891 -0.004,-0.46278 -0.2594,-0.61508 l -1.45126,-0.8473"
       style="fill:#1c4670;fill-opacity:1;fill-rule:nonzero;stroke:none;stroke-width:0.258327"
       id="path286" />
    <path
       d="m 124.53212,97.179856 c 0.29451,0 0.53164,0.17576 0.53164,0.39542 l -0.0137,2.08732 c -0.003,0.21966 -0.25029,0.392494 -0.53582,0.387374 l -1.68428,-0.0143 c -0.29576,0 -0.53295,-0.177944 -0.53089,-0.397604 l 0.0163,-2.08212 c 0,-0.21967 0.24411,-0.39542 0.53681,-0.39031 l 1.68016,0.0143"
       style="fill:#1c4670;fill-opacity:1;fill-rule:nonzero;stroke:none;stroke-width:0.258327"
       id="path288" />
    <path
       d="m 140.90669,97.309026 c -0.29476,0 -0.53706,0.17283 -0.54193,0.38738 l -0.0206,2.08468 c 0.004,0.219674 0.24206,0.397614 0.53476,0.402724 l 1.68326,0.007 c 0.2945,-0.003 0.53369,-0.17064 0.53992,-0.392494 l 0.0119,-2.08204 c 0.008,-0.21674 -0.23202,-0.39542 -0.52777,-0.40565 l -1.6799,-0.005"
       style="fill:#1c4670;fill-opacity:1;fill-rule:nonzero;stroke:none;stroke-width:0.258327"
       id="path290" />
    <path
       d="m 124.88216,101.46552 c 0.25029,-0.14208 0.54299,-0.10616 0.65202,0.0827 l 1.02813,1.81601 c 0.10901,0.18381 -0.01,0.45692 -0.2663,0.60193 l -1.46316,0.82929 c -0.25528,0.15012 -0.55004,0.11352 -0.66213,-0.0798 l -1.02814,-1.81345 c -0.10383,-0.18892 0.0156,-0.46278 0.26944,-0.60997 l 1.47014,-0.82665"
       style="fill:#1c4670;fill-opacity:1;fill-rule:nonzero;stroke:none;stroke-width:0.258327"
       id="path292" />
    <path
       d="m 139.11649,93.395376 c -0.25733,0.145008 -0.37328,0.41376 -0.27561,0.60411 l 1.04261,1.81345 c 0.10274,0.18891 0.39854,0.22995 0.64966,0.0798 l 1.47144,-0.8292 c 0.25522,-0.14501 0.3764,-0.41301 0.26738,-0.60411 l -1.02941,-1.818659 c -0.109,-0.191098 -0.39861,-0.219663 -0.66285,-0.07983 l -1.46316,0.834418"
       style="fill:#1c4670;fill-opacity:1;fill-rule:nonzero;stroke:none;stroke-width:0.258327"
       id="path294" />
    <path
       d="m 127.32025,105.00718 c 0.1452,-0.2504 0.41882,-0.36978 0.60941,-0.2607 l 1.80235,1.05659 c 0.18549,0.11644 0.22085,0.40789 0.0659,0.66123 l -0.85275,1.4518 c -0.15137,0.25334 -0.42492,0.36978 -0.6104,0.25845 l -1.79435,-1.05659 c -0.19659,-0.10834 -0.22184,-0.40565 -0.0736,-0.65318 l 0.85376,-1.45698"
       style="fill:#1c4670;fill-opacity:1;fill-rule:nonzero;stroke:none;stroke-width:0.258327"
       id="path296" />
    <path
       d="m 135.61383,90.897401 c -0.14133,0.253342 -0.11807,0.544793 0.0689,0.659034 l 1.80312,1.053951 c 0.18779,0.111329 0.46215,-0.0052 0.61172,-0.258458 l 0.85144,-1.449227 c 0.14961,-0.253342 0.11905,-0.55577 -0.0725,-0.661236 l -1.79305,-1.05395 c -0.18986,-0.111329 -0.4601,0.0025 -0.61353,0.253342 l -0.85584,1.456912"
       style="fill:#1c4670;fill-opacity:1;fill-rule:nonzero;stroke:none;stroke-width:0.258327"
       id="path298" />
    <path
       d="m 132.66529,104.46729 c -3.20067,-0.0219 -5.76998,-2.63235 -5.74674,-5.833014 0.0237,-3.19552 2.63881,-5.763281 5.83251,-5.745194 3.20195,0.02932 5.76895,2.640104 5.74183,5.838194 -0.0256,3.198094 -2.63184,5.768424 -5.8276,5.740014 z m 0.10802,-14.579976 c -4.85371,-0.0368 -8.82342,3.869732 -8.86371,8.726242 -0.0349,4.848834 3.8687,8.824454 8.7286,8.860634 4.85577,0.0368 8.82857,-3.87229 8.86164,-8.723704 0.0405,-4.85651 -3.86664,-8.826997 -8.72653,-8.863172"
       style="fill:#1c4670;fill-opacity:1;fill-rule:nonzero;stroke:none;stroke-width:0.258327"
       id="path300" />
    <path
       d="m 45.301509,113.06957 c 0.0038,0.25334 -0.147478,0.4445 -0.329078,0.4445 l -1.722522,-0.008 c -0.186508,-0.005 -0.324686,-0.20432 -0.322928,-0.4445 l 0.01247,-1.39241 c -0.0021,-0.24018 0.149313,-0.43938 0.329079,-0.43646 l 1.720456,0.0144 c 0.183652,0 0.326807,0.19921 0.32498,0.44669 l -0.01247,1.37951"
       style="fill:#1c4670;fill-opacity:1;fill-rule:nonzero;stroke:none;stroke-width:0.258327"
       id="path302" />
    <path
       d="m 45.195594,126.60328 c 0.0018,-0.24311 -0.144403,-0.44157 -0.322928,-0.44157 l -1.725619,-0.0144 c -0.179547,-0.002 -0.330911,0.20139 -0.330911,0.44158 l -0.008,1.38983 c -0.0018,0.24311 0.141329,0.43933 0.319049,0.44157 l 1.729501,0.0144 c 0.181599,0.005 0.326002,-0.19629 0.326002,-0.43933 l 0.01316,-1.39241"
       style="fill:#1c4670;fill-opacity:1;fill-rule:nonzero;stroke:none;stroke-width:0.258327"
       id="path304" />
    <path
       d="m 41.75649,113.36145 -0.06811,0.54479 -1.497519,0.84994 -0.5027,-0.22484 -0.682984,-1.2064 0.06225,-0.54772 1.5014,-0.84732 0.506581,0.21967 0.681225,1.21153"
       style="fill:#1c4670;fill-opacity:1;fill-rule:nonzero;stroke:none;stroke-width:0.258327"
       id="path306" />
    <path
       d="m 48.428556,125.13341 -0.498305,-0.22484 -1.501652,0.8473 -0.06591,0.54481 0.684302,1.20897 0.501378,0.22702 1.503464,-0.85242 0.06297,-0.54481 -0.686352,-1.2064"
       style="fill:#1c4670;fill-opacity:1;fill-rule:nonzero;stroke:none;stroke-width:0.258327"
       id="path308" />
    <path
       d="m 38.830172,115.37898 0.216969,0.50675 -0.869779,1.48284 -0.553076,0.0586 -1.195796,-0.70298 -0.208693,-0.50893 0.869792,-1.4854 0.541731,-0.0511 1.198892,0.70297"
       style="fill:#1c4670;fill-opacity:1;fill-rule:nonzero;stroke:none;stroke-width:0.258327"
       id="path310" />
    <path
       d="m 50.492327,122.2376 -0.5451,0.0511 -0.869784,1.49052 0.21697,0.50381 1.195794,0.70005 0.547882,-0.0511 0.869784,-1.48796 -0.21697,-0.50893 -1.198637,-0.70005"
       style="fill:#1c4670;fill-opacity:1;fill-rule:nonzero;stroke:none;stroke-width:0.258327"
       id="path312" />
    <path
       d="m 37.304491,118.59261 c 0.244137,0 0.440968,0.14718 0.440968,0.33098 l -0.01541,1.72303 c -0.0031,0.17793 -0.204814,0.32294 -0.441998,0.32001 l -1.391346,-0.0144 c -0.245385,-0.002 -0.441998,-0.14718 -0.437089,-0.32806 l 0.01022,-1.72302 c 0,-0.18086 0.203791,-0.32587 0.447192,-0.32294 l 1.387473,0.0144"
       style="fill:#1c4670;fill-opacity:1;fill-rule:nonzero;stroke:none;stroke-width:0.258327"
       id="path314" />
    <path
       d="m 50.838227,118.69849 c -0.245161,0 -0.443825,0.14207 -0.448951,0.31783 l -0.01466,1.72823 c 0.0018,0.18086 0.196612,0.32587 0.440969,0.33098 l 1.390314,0.008 c 0.245379,0 0.439141,-0.14208 0.447192,-0.32806 l 0.01247,-1.71789 c 0.0021,-0.18087 -0.196831,-0.33099 -0.43914,-0.33611 l -1.387474,-0.005"
       style="fill:#1c4670;fill-opacity:1;fill-rule:nonzero;stroke:none;stroke-width:0.258327"
       id="path316" />
    <path
       d="m 37.594073,122.13428 0.539898,0.0659 0.850671,1.50085 -0.223193,0.4987 -1.209746,0.68685 -0.54583,-0.0659 -0.847823,-1.50084 0.223195,-0.50382 1.212842,-0.68174"
       style="fill:#1c4670;fill-opacity:1;fill-rule:nonzero;stroke:none;stroke-width:0.258327"
       id="path318" />
    <path
       d="m 49.358012,115.46165 -0.228103,0.5009 0.860749,1.50092 0.534771,0.0659 1.21594,-0.68174 0.225246,-0.50382 -0.850672,-1.50093 -0.547882,-0.0659 -1.210002,0.68467"
       style="fill:#1c4670;fill-opacity:1;fill-rule:nonzero;stroke:none;stroke-width:0.258327"
       id="path320" />
    <path
       d="m 39.607213,125.0585 0.507602,-0.21455 1.487186,0.87316 0.05202,0.54772 -0.704439,1.19865 -0.501378,0.21455 -1.48331,-0.87316 -0.0615,-0.54261 0.7044,-1.20384"
       style="fill:#1c4670;fill-opacity:1;fill-rule:nonzero;stroke:none;stroke-width:0.258327"
       id="path322" />
    <path
       d="m 46.463979,113.40019 0.05713,0.54479 1.48848,0.86802 0.504528,-0.21455 0.704439,-1.19345 -0.06074,-0.5499 -1.483311,-0.87059 -0.504529,0.21162 -0.70627,1.20378"
       style="fill:#1c4670;fill-opacity:1;fill-rule:nonzero;stroke:none;stroke-width:0.258327"
       id="path324" />
    <path
       d="m 44.023824,124.6168 c -2.645782,-0.0219 -4.767931,-2.17775 -4.744681,-4.82555 0.01834,-2.64011 2.179755,-4.7636 4.818566,-4.74288 2.643719,0.0219 4.767935,2.18024 4.745718,4.82035 -0.02345,2.64523 -2.174589,4.76617 -4.819603,4.74808 z m 0.09197,-12.05096 c -4.011039,-0.0368 -7.293596,3.19546 -7.324073,7.20732 -0.03,4.01178 3.193945,7.29512 7.211964,7.32616 4.012324,0.0293 7.295918,-3.19809 7.324073,-7.20995 0.03293,-4.01434 -3.195758,-7.29255 -7.211964,-7.32353"
       style="fill:#1c4670;fill-opacity:1;fill-rule:nonzero;stroke:none;stroke-width:0.258327"
       id="path326" />
    <path
       d="m 77.892009,23.825452 c 0.0031,0.299496 -0.1785,0.534554 -0.3986,0.534554 l -2.083658,-0.01466 c -0.227086,-0.0052 -0.393674,-0.245311 -0.390617,-0.537484 l 0.01247,-1.679084 c 0,-0.297301 0.181618,-0.534553 0.400721,-0.532358 l 2.078492,0.01466 c 0.22322,0 0.398602,0.240183 0.394673,0.537484 l -0.0131,1.673958"
       style="fill:#1c4670;fill-opacity:1;fill-rule:nonzero;stroke:none;stroke-width:0.258327"
       id="path328" />
    <path
       d="m 77.760772,40.200725 c 0.0031,-0.29437 -0.174633,-0.537484 -0.391303,-0.537484 l -2.086022,-0.01466 c -0.214924,-0.0025 -0.3986,0.240183 -0.3986,0.529426 l -0.01,1.684282 c -0.0029,0.289242 0.171515,0.529427 0.385441,0.534553 l 2.091928,0.01466 c 0.221846,0.0052 0.395481,-0.232131 0.393673,-0.527231 l 0.01434,-1.68172"
       style="fill:#1c4670;fill-opacity:1;fill-rule:nonzero;stroke:none;stroke-width:0.258327"
       id="path330" />
    <path
       d="m 73.601459,24.17672 c 0.151371,0.255564 0.118066,0.547732 -0.08189,0.659038 l -1.813201,1.025537 c -0.183677,0.106178 -0.459286,-0.0073 -0.605479,-0.268742 l -0.829516,-1.462185 c -0.146256,-0.25849 -0.112078,-0.549934 0.07777,-0.659039 l 1.813187,-1.02561 c 0.191722,-0.113499 0.467331,0.0073 0.613463,0.263615 l 0.82561,1.467239"
       style="fill:#1c4670;fill-opacity:1;fill-rule:nonzero;stroke:none;stroke-width:0.258327"
       id="path332" />
    <path
       d="m 81.675973,38.415684 c -0.143075,-0.25849 -0.416688,-0.380047 -0.603484,-0.270938 l -1.816281,1.028172 c -0.190662,0.111305 -0.227086,0.405674 -0.07959,0.664165 l 0.82949,1.456987 c 0.146256,0.258489 0.420555,0.382241 0.603171,0.276795 l 1.81862,-1.033371 c 0.189603,-0.103256 0.225027,-0.400548 0.08064,-0.661236 l -0.832602,-1.45955"
       style="fill:#1c4670;fill-opacity:1;fill-rule:nonzero;stroke:none;stroke-width:0.258327"
       id="path334" />
    <path
       d="m 70.061347,26.617944 c 0.257521,0.144989 0.373529,0.42618 0.259392,0.612171 l -1.051386,1.795367 c -0.116007,0.19332 -0.41176,0.221878 -0.669071,0.07323 l -1.44511,-0.852502 c -0.255214,-0.150117 -0.373279,-0.421053 -0.255214,-0.615103 l 1.054493,-1.797929 c 0.109024,-0.183066 0.404775,-0.216751 0.655885,-0.06591 l 1.451023,0.852503"
       style="fill:#1c4670;fill-opacity:1;fill-rule:nonzero;stroke:none;stroke-width:0.258327"
       id="path336" />
    <path
       d="m 84.17348,34.912821 c -0.252096,-0.150116 -0.54997,-0.11643 -0.657937,0.06591 l -1.055267,1.803126 c -0.118065,0.188923 0.0029,0.462062 0.260079,0.609976 l 1.448179,0.849867 c 0.252096,0.152311 0.552029,0.116431 0.660795,-0.06591 l 1.054511,-1.797927 c 0.111079,-0.191124 -0.0048,-0.464986 -0.2622,-0.615103 l -1.448135,-0.852429"
       style="fill:#1c4670;fill-opacity:1;fill-rule:nonzero;stroke:none;stroke-width:0.258327"
       id="path338" />
    <path
       d="m 68.214836,30.503195 c 0.297562,0 0.532943,0.177938 0.532943,0.397621 l -0.01559,2.087322 c -0.0031,0.216751 -0.250287,0.390299 -0.537871,0.387367 l -1.685319,-0.01466 c -0.294507,-0.0026 -0.531634,-0.18087 -0.527767,-0.397623 l 0.0131,-2.082121 c 0,-0.221878 0.247231,-0.39542 0.539928,-0.3903 l 1.680161,0.0073"
       style="fill:#1c4670;fill-opacity:1;fill-rule:nonzero;stroke:none;stroke-width:0.258327"
       id="path340" />
    <path
       d="m 84.590417,30.629731 c -0.292698,0 -0.539929,0.177939 -0.542985,0.390299 l -0.02058,2.089884 c 0.0048,0.216751 0.241991,0.395426 0.534689,0.397621 l 1.685325,0.01466 c 0.292698,-0.0052 0.531634,-0.172812 0.534691,-0.39542 l 0.01559,-2.082122 c 0.0081,-0.219683 -0.2322,-0.395426 -0.526707,-0.402742 l -1.68016,-0.0073"
       style="fill:#1c4670;fill-opacity:1;fill-rule:nonzero;stroke:none;stroke-width:0.258327"
       id="path342" />
    <path
       d="m 68.564863,34.788775 c 0.250287,-0.144989 0.53993,-0.106179 0.652007,0.07982 l 1.028148,1.818652 c 0.112077,0.185998 -0.01,0.456936 -0.267377,0.601925 l -1.46316,0.831853 c -0.254153,0.147185 -0.552029,0.113499 -0.662845,-0.08274 l -1.024275,-1.8109 c -0.10597,-0.188193 0.0131,-0.462061 0.267375,-0.609976 l 1.47014,-0.829216"
       style="fill:#1c4670;fill-opacity:1;fill-rule:nonzero;stroke:none;stroke-width:0.258327"
       id="path344" />
    <path
       d="m 82.798149,26.716068 c -0.259394,0.147185 -0.370161,0.418858 -0.274362,0.607051 l 1.039256,1.813453 c 0.105904,0.188922 0.401719,0.232862 0.65281,0.08274 l 1.469366,-0.82929 c 0.256275,-0.147185 0.378456,-0.415927 0.269372,-0.607051 l -1.02912,-1.818579 c -0.108025,-0.188921 -0.40066,-0.221878 -0.661088,-0.07762 l -1.466234,0.829217"
       style="fill:#1c4670;fill-opacity:1;fill-rule:nonzero;stroke:none;stroke-width:0.258327"
       id="path346" />
    <path
       d="m 70.999845,38.330447 c 0.151371,-0.253362 0.420804,-0.369063 0.612465,-0.260684 l 1.802342,1.054022 c 0.186795,0.118626 0.220849,0.4108 0.06237,0.661235 l -0.850789,1.454349 c -0.153429,0.253363 -0.423673,0.366861 -0.607351,0.25849 L 70.221,40.443838 c -0.194778,-0.111305 -0.2201,-0.405674 -0.07179,-0.65904 l 0.850665,-1.454424"
       style="fill:#1c4670;fill-opacity:1;fill-rule:nonzero;stroke:none;stroke-width:0.258327"
       id="path348" />
    <path
       d="m 79.29963,24.220655 c -0.143387,0.250438 -0.119063,0.544807 0.06885,0.659039 l 1.803016,1.053949 c 0.183677,0.111303 0.459286,-0.0052 0.608597,-0.25849 l 0.84967,-1.449151 c 0.149311,-0.253362 0.121183,-0.552858 -0.07104,-0.659039 l -1.795931,-1.056585 c -0.184674,-0.111304 -0.45598,0.0052 -0.610405,0.253362 l -0.852742,1.456987"
       style="fill:#1c4670;fill-opacity:1;fill-rule:nonzero;stroke:none;stroke-width:0.258327"
       id="path350" />
    <path
       d="m 76.34618,37.790548 c -3.20196,-0.02195 -5.769983,-2.629783 -5.742858,-5.833001 0.0237,-3.195531 2.636734,-5.763292 5.830435,-5.745204 3.20196,0.02932 5.768948,2.640108 5.741829,5.838201 -0.02557,3.200656 -2.631837,5.768416 -5.829406,5.740004 z m 0.109771,-14.579979 c -4.853699,-0.04391 -8.824438,3.8698 -8.863707,8.723692 -0.0368,4.853963 3.868704,8.827085 8.728604,8.86326 4.853705,0.03661 8.829608,-3.872364 8.863712,-8.726327 0.03867,-4.856527 -3.866639,-8.824451 -8.728609,-8.860625"
       style="fill:#1c4670;fill-opacity:1;fill-rule:nonzero;stroke:none;stroke-width:0.258327"
       id="path352" />
    <path
       d="m 77.93747,119.61302 c -0.545106,0 -1.066623,-0.0732 -1.547115,-0.20433 -0.48124,0.13404 -1.002819,0.20433 -1.54893,0.20433 H 23.567708 c -2.563118,0 -4.646777,-2.08213 -4.646777,-4.64477 V 35.935795 c 0,-2.565197 2.083659,-4.649882 4.646777,-4.649882 h 48.173799 c 1.740865,0 3.350237,0.576291 4.648848,1.552548 1.294732,-0.976476 2.904366,-1.552548 4.648075,-1.552548 h 48.17071 c 2.56311,0 4.65195,2.084685 4.65195,4.649882 v 79.032455 c 0,2.56264 -2.08884,4.64477 -4.65195,4.64477 H 77.93747"
       style="fill:#768296;fill-opacity:1;fill-rule:nonzero;stroke:none;stroke-width:0.258327"
       id="path356" />
    <g
       id="g358"
       transform="matrix(0.25832681,0,0,-0.25832681,-14.28827,770.09004)">
      <g
         id="g360"
         clip-path="url(#clipPath364)">
        <path
           d="M 555.488,2847.98 H 369.016 c -9.895,0 -17.993,-8.1 -17.993,-18.01 0,9.91 -8.101,18.01 -17.996,18.01 H 329.52 308.027 146.543 c -3.281,0 -5.984,-2.7 -5.984,-6.02 v -305.94 c 0,-3.3 2.703,-6 5.984,-6 h 12.004 3.504 21.504 124.472 21.493 3.507 12 c 3.286,0 5.981,1.46 5.996,3.26 0,-1.8 2.7,-3.26 5.989,-3.26 h 12.004 3.504 21.496 124.468 21.504 3.496 12.004 c 3.289,0 5.996,2.7 5.996,6 v 305.94 c 0,3.32 -2.707,6.02 -5.996,6.02"
           style="fill:url(#linearGradient372);fill-opacity:1;fill-rule:nonzero;stroke:none"
           id="path374" />
      </g>
    </g>
    <path
       d="M 76.390355,72.801598 V 39.033129 c 0,-2.559998 -2.0927,-4.652445 -4.648848,-4.652445 h -0.905948 -5.55222 -41.715631 c -0.847568,0 -1.545826,0.697849 -1.545826,1.555111 v 79.032455 c 0,0.85251 0.698288,1.54999 1.545826,1.54999 h 3.100958 0.905175 5.555056 32.154442 5.55222 0.905948 3.099918 c 0.850671,0 1.54893,-0.38008 1.54893,-0.84217 v -42.874472 0"
       style="fill:#ffffff;fill-opacity:1;fill-rule:nonzero;stroke:none;stroke-width:0.258327"
       id="path376" />
    <path
       d="M 76.390355,72.801598 V 39.033129 c 0,-2.559998 2.091928,-4.652445 4.648075,-4.652445 h 0.905174 5.552988 41.712548 c 0.84963,0 1.54892,0.697849 1.54892,1.555111 v 79.032455 c 0,0.85251 -0.69931,1.54999 -1.54892,1.54999 h -3.10097 -0.9031 -5.55506 -32.153418 -5.552988 -0.905174 -3.10096 c -0.852729,0 -1.547115,-0.38008 -1.547115,-0.84217 v -42.874472 0"
       style="fill:#ffffff;fill-opacity:1;fill-rule:nonzero;stroke:none;stroke-width:0.258327"
       id="path378" />
    <path
       d="M 70.448067,47.75162 H 26.539503 v -8.07527 h 43.908564 v 8.07527"
       style="fill:#ff7f50;fill-opacity:1;fill-rule:nonzero;stroke:none;stroke-width:0.258327"
       id="path380" />
    <path
       d="M 70.448067,53.367653 H 26.539503 v -2.841554 h 43.908564 v 2.841554"
       style="fill:#aebfce;fill-opacity:1;fill-rule:nonzero;stroke:none;stroke-width:0.258327"
       id="path382" />
    <path
       d="M 70.448067,64.219964 H 26.539503 v -2.841553 h 43.908564 v 2.841553"
       style="fill:#aebfce;fill-opacity:1;fill-rule:nonzero;stroke:none;stroke-width:0.258327"
       id="path384" />
    <path
       d="M 70.448067,69.64224 H 26.539503 v -2.838991 h 43.908564 v 2.838991"
       style="fill:#aebfce;fill-opacity:1;fill-rule:nonzero;stroke:none;stroke-width:0.258327"
       id="path386" />
    <path
       d="M 70.448067,75.067149 H 26.539503 v -2.841625 h 43.908564 v 2.841625"
       style="fill:#aebfce;fill-opacity:1;fill-rule:nonzero;stroke:none;stroke-width:0.258327"
       id="path388" />
    <path
       d="M 70.448067,84.366915 H 26.539503 v -2.839066 h 43.908564 v 2.839066"
       style="fill:#aebfce;fill-opacity:1;fill-rule:nonzero;stroke:none;stroke-width:0.258327"
       id="path390" />
    <path
       d="M 70.448067,89.791753 H 26.539503 v -2.838991 h 43.908564 v 2.838991"
       style="fill:#aebfce;fill-opacity:1;fill-rule:nonzero;stroke:none;stroke-width:0.258327"
       id="path392" />
    <path
       d="M 70.448067,100.63886 H 26.539503 v -2.838994 h 43.908564 v 2.838994"
       style="fill:#aebfce;fill-opacity:1;fill-rule:nonzero;stroke:none;stroke-width:0.258327"
       id="path394" />
    <path
       d="M 70.448067,106.06113 H 26.539503 v -2.83642 h 43.908564 v 2.83642"
       style="fill:#aebfce;fill-opacity:1;fill-rule:nonzero;stroke:none;stroke-width:0.258327"
       id="path396" />
    <path
       d="M 82.331871,42.523103 H 126.23941 V 39.67635 H 82.331871 v 2.846753"
       style="fill:#aebfce;fill-opacity:1;fill-rule:nonzero;stroke:none;stroke-width:0.258327"
       id="path398" />
    <path
       d="M 82.331871,47.945377 H 126.23941 V 45.098624 H 82.331871 v 2.846753"
       style="fill:#aebfce;fill-opacity:1;fill-rule:nonzero;stroke:none;stroke-width:0.258327"
       id="path400" />
    <path
       d="M 82.331871,57.245141 H 126.23941 V 54.398388 H 82.331871 v 2.846753"
       style="fill:#aebfce;fill-opacity:1;fill-rule:nonzero;stroke:none;stroke-width:0.258327"
       id="path402" />
    <path
       d="M 82.331871,62.667417 H 126.23941 V 59.828426 H 82.331871 v 2.838991"
       style="fill:#aebfce;fill-opacity:1;fill-rule:nonzero;stroke:none;stroke-width:0.258327"
       id="path404" />
    <path
       d="M 82.331871,68.094891 H 126.23941 V 65.248138 H 82.331871 v 2.846753"
       style="fill:#aebfce;fill-opacity:1;fill-rule:nonzero;stroke:none;stroke-width:0.258327"
       id="path406" />
    <path
       d="M 82.331871,84.366915 H 126.23941 V 81.527849 H 82.331871 v 2.839066"
       style="fill:#aebfce;fill-opacity:1;fill-rule:nonzero;stroke:none;stroke-width:0.258327"
       id="path408" />
    <path
       d="M 82.331871,89.791753 H 126.23941 V 86.952762 H 82.331871 v 2.838991"
       style="fill:#aebfce;fill-opacity:1;fill-rule:nonzero;stroke:none;stroke-width:0.258327"
       id="path410" />
    <path
       d="M 82.331871,95.216586 H 126.23941 V 92.375037 H 82.331871 v 2.841549"
       style="fill:#aebfce;fill-opacity:1;fill-rule:nonzero;stroke:none;stroke-width:0.258327"
       id="path412" />
    <path
       d="m 82.331871,106.06113 h 43.907539 v -2.83642 H 82.331871 v 2.83642"
       style="fill:#aebfce;fill-opacity:1;fill-rule:nonzero;stroke:none;stroke-width:0.258327"
       id="path414" />
    <path
       d="m 95.4218,31.285913 h -5.647795 v 62.507293 l 5.647795,-3.172237 5.64703,3.172237 V 31.285913 H 95.4218"
       style="fill:#1c4670;fill-opacity:1;fill-rule:nonzero;stroke:none;stroke-width:0.258327"
       id="path416" />
    <path
       d="m 143.89946,27.704418 c 0,0 -1.993,-2.456748 -6.68834,-0.751744 -3.6548,1.320055 -20.48635,16.478669 -18.70028,23.045328 0,0 1.34202,0.24531 3.24614,-3.802579 1.90827,-4.058358 3.09088,-6.35745 7.05671,-10.314975 3.95861,-3.955035 9.40465,-7.832525 11.20596,-6.068133 l 3.87981,-2.107897"
       style="fill:#ff7f50;fill-opacity:1;fill-rule:nonzero;stroke:none;stroke-width:0.258327"
       id="path444" />
    <path
       d="m 130.95988,59.75243 c -10.11506,13.706826 -22.85083,25.393481 -26.12925,22.98074 -3.26938,-2.417937 4.15751,-18.031216 14.27358,-31.738044 10.12306,-13.701626 24.10396,-27.085597 27.38368,-24.667659 3.27249,2.417939 -5.40575,19.720699 -15.52801,33.424963"
       style="fill:#1c4670;fill-opacity:1;fill-rule:nonzero;stroke:none;stroke-width:0.258327"
       id="path446" />
    <path
       d="m 112.8044,71.935117 c -1.60756,-1.185753 -3.3603,-1.976234 -5.119,-2.384398 -3.2513,6.669984 -4.62689,11.867523 -2.85477,13.182451 1.77987,1.309725 6.34399,-1.544782 11.76291,-6.608029 -0.90827,-1.557674 -2.17769,-3.001774 -3.78914,-4.190024"
       style="fill:#ff7f50;fill-opacity:1;fill-rule:nonzero;stroke:none;stroke-width:0.258327"
       id="path448" />
    <g
       id="g450"
       transform="matrix(0.25832681,0,0,-0.25832681,-27.650722,768.62186)">
      <g
         id="g452"
         clip-path="url(#clipPath456)">
        <path
           d="m 611.301,2735.87 c -3.547,-4.83 -7.231,-8.14 -12.649,-4.14 l -37.839,27.94 c -5.415,3.99 -3.313,8.49 0.222,13.33 3.582,4.79 7.258,8.11 12.649,4.12 l 37.859,-27.94 c 5.41,-4 3.32,-8.48 -0.242,-13.31"
           style="fill:url(#linearGradient464);fill-opacity:1;fill-rule:nonzero;stroke:none"
           id="path466" />
      </g>
    </g>
    <g
       id="g468"
       transform="matrix(0.25832681,0,0,-0.25832681,-27.65069,768.62164)">
      <g
         id="g470"
         clip-path="url(#clipPath474)">
        <path
           d="m 516.797,2660.47 c -2.207,1.61 -4.617,2.71 -7.024,3.27 -4.429,-9.15 -6.328,-16.27 -3.894,-18.06 2.422,-1.8 8.672,2.11 16.113,9.04 -1.238,2.14 -3,4.12 -5.195,5.75"
           style="fill:url(#linearGradient482);fill-opacity:1;fill-rule:nonzero;stroke:none"
           id="path484" />
      </g>
    </g>
    <path
       d="m 130.26471,61.873288 c -0.91629,1.247706 -1.86796,2.102773 -3.26757,1.069473 l -9.77483,-7.217643 c -1.39884,-1.030736 -0.85584,-2.193205 0.0573,-3.443548 0.92534,-1.237381 1.87494,-2.095009 3.26759,-1.064274 l 9.77999,7.217642 c 1.39755,1.0333 0.85764,2.190644 -0.0624,3.43835"
       style="fill:#ff7f50;fill-opacity:1;fill-rule:nonzero;stroke:none;stroke-width:0.258327"
       id="path486" />
    <path
       d="m 4.1800801,62.768177 c 0,0 1.5903104,-1.95815 5.3340298,-0.601924 2.9101591,1.051386 16.3271341,13.135958 14.9042701,18.369672 0,0 -1.072578,0.194031 -2.589208,-3.03282 -1.520774,-3.2342 -2.464437,-5.068373 -5.62791,-8.219895 -3.15133,-3.156794 -7.4924022,-6.243803 -8.9303582,-4.841076 L 4.1800801,62.768177"
       style="fill:#ff7f50;fill-opacity:1;fill-rule:nonzero;stroke:none;stroke-width:0.258327"
       id="path488" />
    <path
       d="M 14.492947,88.306352 C 22.558683,99.236126 32.708087,108.54886 35.318479,106.62688 37.923958,104.69722 32.006731,92.256185 23.94306,81.328967 15.873443,70.406871 4.7300331,59.743191 2.1195091,61.670292 -0.48897227,63.597394 6.4252989,77.389455 14.492947,88.306352"
       style="fill:#1c4670;fill-opacity:1;fill-rule:nonzero;stroke:none;stroke-width:0.258327"
       id="path490" />
    <path
       d="m 28.964412,98.022036 c 1.281559,-0.94806 2.679108,-1.5784 4.078723,-1.90645 2.593338,5.318954 3.685027,9.465114 2.275344,10.511294 -1.417701,1.04363 -5.052357,-1.23218 -9.374426,-5.26469 0.724577,-1.24258 1.735702,-2.394654 3.020359,-3.340154"
       style="fill:#ff7f50;fill-opacity:1;fill-rule:nonzero;stroke:none;stroke-width:0.258327"
       id="path492" />
    <g
       id="g494"
       transform="matrix(0.25832681,0,0,-0.25832681,-14.28827,770.09004)">
      <g
         id="g496"
         clip-path="url(#clipPath500)">
        <path
           d="m 113.563,2632.67 c 2.832,-3.83 5.761,-6.48 10.082,-3.29 l 30.156,22.26 c 4.312,3.19 2.644,6.76 -0.18,10.62 -2.851,3.83 -5.777,6.47 -10.074,3.29 l -30.168,-22.27 c -4.316,-3.19 -2.656,-6.76 0.184,-10.61"
           style="fill:url(#linearGradient508);fill-opacity:1;fill-rule:nonzero;stroke:none"
           id="path510" />
      </g>
    </g>
    <path
       d="m 34.508367,105.52387 c 0.449975,-0.331 0.946505,-0.55577 1.440944,-0.67149 0.916282,1.88061 1.303776,3.34793 0.8021,3.71991 -0.497499,0.36686 -1.786067,-0.43421 -3.314845,-1.86515 0.257316,-0.43933 0.615614,-0.84731 1.071801,-1.18312"
       style="fill:#1c4670;fill-opacity:1;fill-rule:nonzero;stroke:none;stroke-width:0.258327"
       id="path512" />
    <path
       d="m 15.048091,90.000957 c 0.731606,0.989435 1.488219,1.673961 2.604454,0.849941 l 7.790098,-5.750404 c 1.113906,-0.824014 0.682984,-1.746229 -0.04615,-2.743429 -0.73649,-0.989361 -1.492356,-1.671316 -2.602381,-0.849866 l -7.793203,5.752967 c -1.114938,0.824014 -0.686131,1.746229 0.04759,2.740791"
       style="fill:#ff7f50;fill-opacity:1;fill-rule:nonzero;stroke:none;stroke-width:0.258327"
       id="path514" />
  </g>
</svg>
