<?xml version="1.0" encoding="UTF-8" standalone="no"?>
<svg
   xmlns:dc="http://purl.org/dc/elements/1.1/"
   xmlns:cc="http://creativecommons.org/ns#"
   xmlns:rdf="http://www.w3.org/1999/02/22-rdf-syntax-ns#"
   xmlns:svg="http://www.w3.org/2000/svg"
   xmlns="http://www.w3.org/2000/svg"
   xmlns:sodipodi="http://sodipodi.sourceforge.net/DTD/sodipodi-0.dtd"
   xmlns:inkscape="http://www.inkscape.org/namespaces/inkscape"
   width="150mm"
   height="150mm"
   viewBox="0 0 150 150"
   version="1.1"
   id="svg3238"
   inkscape:version="1.0.1 (3bc2e813f5, 2020-09-07)"
   sodipodi:docname="develop.svg">
  <defs
     id="defs3232" />
  <sodipodi:namedview
     id="base"
     pagecolor="#ffffff"
     bordercolor="#666666"
     borderopacity="1.0"
     inkscape:pageopacity="0.0"
     inkscape:pageshadow="2"
     inkscape:zoom="1.979899"
     inkscape:cx="297.98982"
     inkscape:cy="226.60802"
     inkscape:document-units="mm"
     inkscape:current-layer="layer1"
     inkscape:document-rotation="0"
     showgrid="false"
     inkscape:window-width="3840"
     inkscape:window-height="2093"
     inkscape:window-x="-9"
     inkscape:window-y="-9"
     inkscape:window-maximized="1" />
  <metadata
     id="metadata3235">
    <rdf:RDF>
      <cc:Work
         rdf:about="">
        <dc:format>image/svg+xml</dc:format>
        <dc:type
           rdf:resource="http://purl.org/dc/dcmitype/StillImage" />
        <dc:title></dc:title>
      </cc:Work>
    </rdf:RDF>
  </metadata>
  <g
     inkscape:label="Layer 1"
     inkscape:groupmode="layer"
     id="layer1">
    <path
       d="m 34.377776,83.395187 c -0.0302,0.605192 -0.411781,1.070938 -0.858739,1.049722 l -4.260512,-0.212005 c -0.446957,-0.02965 -0.779952,-0.530595 -0.750645,-1.134998 l 0.175331,-3.431831 c 0.0302,-0.601368 0.417649,-1.073434 0.865239,-1.050548 l 4.255676,0.218636 c 0.440488,0.01951 0.778485,0.525602 0.746681,1.133337 l -0.173006,3.427664"
       style="fill:#aebfce;fill-opacity:1;fill-rule:nonzero;stroke:none;stroke-width:0.207989"
       id="path548" />
    <path
       d="m 32.678917,116.81081 c 0.02934,-0.60356 -0.307824,-1.109 -0.74814,-1.13168 l -4.259835,-0.21052 c -0.442041,-0.0265 -0.831931,0.44367 -0.861929,1.04661 l -0.170766,3.43411 c -0.03277,0.59872 0.300754,1.10671 0.748319,1.13105 l 4.260461,0.21037 c 0.446956,0.0265 0.828828,-0.44258 0.857963,-1.0464 l 0.173872,-3.43348"
       style="fill:#aebfce;fill-opacity:1;fill-rule:nonzero;stroke:none;stroke-width:0.207989"
       id="path550" />
    <path
       d="m 25.590218,83.725897 c 0.27541,0.534575 0.178865,1.133329 -0.220072,1.333207 l -3.796652,1.946787 c -0.391611,0.201392 -0.938442,-0.07101 -1.212994,-0.605503 l -1.56799,-3.057215 c -0.27559,-0.540973 -0.173872,-1.13812 0.218348,-1.342157 l 3.798307,-1.940131 c 0.397214,-0.210522 0.944899,0.06788 1.213822,0.60129 l 1.567205,3.063691"
       style="fill:#aebfce;fill-opacity:1;fill-rule:nonzero;stroke:none;stroke-width:0.207989"
       id="path552" />
    <path
       d="m 40.828782,113.51645 c -0.277049,-0.54542 -0.816588,-0.81175 -1.212994,-0.61439 l -3.794144,1.94512 c -0.40394,0.20155 -0.497301,0.80512 -0.226713,1.34132 l 1.564704,3.05975 c 0.275418,0.53613 0.822191,0.80675 1.217985,0.60519 l 3.798101,-1.94095 c 0.394974,-0.20553 0.493937,-0.80677 0.217833,-1.34528 l -1.564731,-3.05077"
       style="fill:#aebfce;fill-opacity:1;fill-rule:nonzero;stroke:none;stroke-width:0.207989"
       id="path554" />
    <path
       d="m 18.144869,88.401709 c 0.507898,0.328267 0.718919,0.89602 0.482726,1.266446 l -2.319646,3.583035 c -0.24455,0.374538 -0.849034,0.411758 -1.360064,0.08107 L 12.071733,91.464557 C 11.563945,91.140504 11.34701,90.570831 11.592387,90.196238 l 2.314696,-3.581162 c 0.238839,-0.374538 0.846577,-0.410353 1.353552,-0.08365 l 2.884238,1.870186"
       style="fill:#aebfce;fill-opacity:1;fill-rule:nonzero;stroke:none;stroke-width:0.207989"
       id="path556" />
    <path
       d="m 46.234851,106.57543 c -0.507124,-0.32655 -1.11462,-0.2866 -1.353596,0.0828 l -2.314719,3.58614 c -0.242053,0.36963 -0.03277,0.94013 0.479455,1.26833 l 2.881701,1.86379 c 0.507124,0.33466 1.115655,0.29323 1.358588,-0.0828 l 2.311382,-3.57971 c 0.244644,-0.36798 0.03106,-0.93823 -0.476092,-1.26894 l -2.886684,-1.86961"
       style="fill:#aebfce;fill-opacity:1;fill-rule:nonzero;stroke:none;stroke-width:0.207989"
       id="path558" />
    <path
       d="m 14.033012,96.171994 c 0.60527,0.03277 1.07895,0.415894 1.055386,0.858824 l -0.221797,4.261292 c -0.01888,0.44531 -0.526491,0.77834 -1.128509,0.74916 l -3.433457,-0.17471 c -0.6052927,-0.0312 -1.0765132,-0.41847 -1.0488918,-0.86524 l 0.2136662,-4.251718 c 0.022784,-0.450928 0.5321646,-0.783916 1.1342096,-0.750636 l 3.4294,0.172989"
       style="fill:#aebfce;fill-opacity:1;fill-rule:nonzero;stroke:none;stroke-width:0.207989"
       id="path560" />
    <path
       d="m 47.454302,97.870853 c -0.605222,-0.02965 -1.114621,0.306341 -1.134172,0.748998 l -0.215242,4.257339 c -0.02497,0.44531 0.446091,0.83607 1.05284,0.86124 l 3.428709,0.17697 c 0.603584,0.0312 1.110664,-0.30782 1.13168,-0.75313 l 0.219471,-4.25713 c 0.02154,-0.445311 -0.452644,-0.830461 -1.053675,-0.861321 l -3.429594,-0.17299"
       style="fill:#aebfce;fill-opacity:1;fill-rule:nonzero;stroke:none;stroke-width:0.207989"
       id="path562" />
    <path
       d="m 14.362864,104.95955 c 0.538641,-0.2731 1.132571,-0.1747 1.339751,0.21778 l 1.941768,3.79664 c 0.202313,0.39646 -0.06812,0.94407 -0.60772,1.21612 l -3.056474,1.56658 c -0.535411,0.27622 -1.13257,0.17619 -1.343804,-0.21864 l -1.937716,-3.79827 c -0.203936,-0.39725 0.06664,-0.94407 0.603654,-1.21466 l 3.060545,-1.56555"
       style="fill:#aebfce;fill-opacity:1;fill-rule:nonzero;stroke:none;stroke-width:0.207989"
       id="path564" />
    <path
       d="m 44.15017,89.720154 c -0.535574,0.274739 -0.807622,0.819083 -0.603755,1.216328 l 1.941793,3.794141 c 0.20154,0.397245 0.800382,0.496498 1.338202,0.222773 l 3.060569,-1.564914 c 0.537033,-0.272087 0.808225,-0.818827 0.603584,-1.216321 l -1.94014,-3.798113 c -0.205504,-0.394982 -0.801156,-0.490957 -1.340692,-0.220275 l -3.059535,1.566365"
       style="fill:#aebfce;fill-opacity:1;fill-rule:nonzero;stroke:none;stroke-width:0.207989"
       id="path566" />
    <path
       d="m 19.036874,112.4033 c 0.32989,-0.5054 0.897884,-0.7174 1.272482,-0.48027 l 3.579501,2.31244 c 0.372908,0.25023 0.416011,0.8571 0.08362,1.36483 l -1.867944,2.88418 c -0.329032,0.50376 -0.897686,0.72239 -1.271447,0.47465 l -3.576417,-2.31321 c -0.377823,-0.24688 -0.41196,-0.85209 -0.08775,-1.35192 l 1.867721,-2.89065"
       style="fill:#aebfce;fill-opacity:1;fill-rule:nonzero;stroke:none;stroke-width:0.207989"
       id="path568" />
    <path
       d="m 37.215799,84.314078 c -0.327565,0.505392 -0.290931,1.110677 0.08534,1.356101 l 3.584494,2.313046 c 0.367304,0.245401 0.936786,0.03121 1.266653,-0.474415 l 1.867954,-2.889172 c 0.325754,-0.507109 0.288347,-1.112323 -0.08534,-1.351926 l -3.581399,-2.316425 c -0.373774,-0.241265 -0.942614,-0.02809 -1.271654,0.472152 l -1.866083,2.890639"
       style="fill:#aebfce;fill-opacity:1;fill-rule:nonzero;stroke:none;stroke-width:0.207989"
       id="path570" />
    <path
       d="M 29.992945,111.77122 C 23.466427,111.44219 18.445471,105.88241 18.776882,99.354445 19.110915,92.825434 24.668818,87.80603 31.194491,88.13922 c 6.525682,0.330686 11.550922,5.887779 11.217719,12.41678 -0.332309,6.52651 -5.886317,11.54759 -12.419265,11.21522 z m 1.511251,-29.765195 c -9.911334,-0.501491 -18.35597,7.127602 -18.856436,17.035603 -0.505345,9.912782 7.117914,18.359862 17.035687,18.861132 9.910299,0.50289 18.352603,-7.12594 18.858848,-17.03478 C 49.04519,90.953531 41.420934,82.511231 31.504196,82.006025"
       style="fill:#768296;fill-opacity:1;fill-rule:nonzero;stroke:none;stroke-width:0.207989"
       id="path572" />
    <path
       d="m 44.159118,76.990562 c -0.02154,0.443671 -0.303259,0.788917 -0.627289,0.774357 l -3.136073,-0.160193 c -0.33067,-0.02185 -0.575306,-0.389207 -0.554106,-0.831935 l 0.128358,-2.524996 c 0.02239,-0.443671 0.308604,-0.790553 0.635997,-0.774357 l 3.130461,0.158476 c 0.325926,0.01639 0.573667,0.389208 0.552638,0.835899 l -0.129996,2.522702"
       style="fill:#1c4670;fill-opacity:1;fill-rule:nonzero;stroke:none;stroke-width:0.207989"
       id="path574" />
    <path
       d="m 42.910342,101.57723 c 0.02239,-0.44929 -0.225074,-0.82555 -0.550914,-0.8359 l -3.133616,-0.15605 c -0.326792,-0.0234 -0.610224,0.32655 -0.635388,0.76936 l -0.125853,2.52749 c -0.02325,0.43884 0.22335,0.81323 0.551601,0.83194 l 3.136073,0.15605 c 0.325669,0.0164 0.608585,-0.32904 0.629614,-0.77186 l 0.128529,-2.52104"
       style="fill:#1c4670;fill-opacity:1;fill-rule:nonzero;stroke:none;stroke-width:0.207989"
       id="path576" />
    <path
       d="m 37.695001,77.231834 c 0.201541,0.397479 0.131627,0.834425 -0.160762,0.986487 l -2.794968,1.4266 c -0.286623,0.147865 -0.688058,-0.04994 -0.892901,-0.44531 l -1.151222,-2.247954 c -0.202141,-0.399742 -0.129996,-0.838396 0.158523,-0.987946 l 2.794913,-1.422644 c 0.293256,-0.160193 0.696165,0.04604 0.894358,0.436337 l 1.152049,2.254391"
       style="fill:#1c4670;fill-opacity:1;fill-rule:nonzero;stroke:none;stroke-width:0.207989"
       id="path578" />
    <path
       d="M 48.906272,99.148121 C 48.701368,98.74916 48.305794,98.550733 48.013371,98.701173 l -2.793301,1.426587 c -0.292398,0.15208 -0.364808,0.5924 -0.16404,0.98566 l 1.151222,2.25295 c 0.202398,0.39724 0.603755,0.59466 0.896228,0.44679 l 2.792474,-1.43077 c 0.28912,-0.15176 0.365409,-0.59067 0.161629,-0.98628 L 48.90635,99.148121"
       style="fill:#1c4670;fill-opacity:1;fill-rule:nonzero;stroke:none;stroke-width:0.207989"
       id="path580" />
    <path
       d="m 32.217384,80.674261 c 0.376271,0.237286 0.529706,0.659734 0.355062,0.929503 l -1.706153,2.638153 c -0.178608,0.276144 -0.623153,0.301347 -0.999187,0.06086 L 27.748937,82.928526 C 27.376802,82.685623 27.21604,82.267077 27.396372,81.992579 l 1.704481,-2.634821 c 0.173005,-0.274583 0.624792,-0.299709 0.995231,-0.05852 l 2.121282,1.374602"
       style="fill:#1c4670;fill-opacity:1;fill-rule:nonzero;stroke:none;stroke-width:0.207989"
       id="path582" />
    <path
       d="m 52.884077,94.044056 c -0.374546,-0.239626 -0.820725,-0.212004 -0.997731,0.0632 l -1.701352,2.633136 c -0.181198,0.274739 -0.02669,0.689853 0.351965,0.937625 l 2.119618,1.373143 c 0.37041,0.241265 0.822191,0.213643 0.999395,-0.06554 l 1.699684,-2.630912 c 0.181199,-0.270604 0.02325,-0.693052 -0.35024,-0.935956 l -2.12127,-1.374804"
       style="fill:#1c4670;fill-opacity:1;fill-rule:nonzero;stroke:none;stroke-width:0.207989"
       id="path584" />
    <path
       d="m 29.192598,86.390033 c 0.447815,0.02263 0.793054,0.305327 0.776846,0.630395 l -0.162401,3.132106 c -0.01553,0.33053 -0.388513,0.575931 -0.829689,0.557204 l -2.528326,-0.130854 c -0.44368,-0.02263 -0.788917,-0.303844 -0.769348,-0.636871 l 0.157665,-3.127963 c 0.01553,-0.326785 0.387475,-0.576165 0.831931,-0.550884 l 2.523334,0.126875"
       style="fill:#1c4670;fill-opacity:1;fill-rule:nonzero;stroke:none;stroke-width:0.207989"
       id="path586" />
    <path
       d="m 53.779263,87.640257 c -0.443422,-0.02185 -0.818052,0.221914 -0.833397,0.548465 l -0.159303,3.132949 c -0.01724,0.328267 0.32989,0.615803 0.775816,0.636012 l 2.521249,0.129216 c 0.441955,0.02107 0.816329,-0.222538 0.834258,-0.557203 l 0.158438,-3.127956 c 0.0181,-0.333183 -0.331529,-0.614398 -0.77435,-0.637027 l -2.522706,-0.124378"
       style="fill:#1c4670;fill-opacity:1;fill-rule:nonzero;stroke:none;stroke-width:0.207989"
       id="path588" />
    <path
       d="m 29.436359,92.856435 c 0.395754,-0.204046 0.832793,-0.130855 0.984827,0.158242 l 1.428273,2.790801 c 0.149558,0.293232 -0.04916,0.697187 -0.446091,0.898727 l -2.250498,1.14789 c -0.393335,0.206386 -0.831931,0.129137 -0.98462,-0.162378 l -1.427638,-2.79084 c -0.151025,-0.289331 0.0483,-0.690555 0.442041,-0.896223 l 2.253774,-1.146235"
       style="fill:#1c4670;fill-opacity:1;fill-rule:nonzero;stroke:none;stroke-width:0.207989"
       id="path590" />
    <path
       d="m 51.349319,81.643496 c -0.394116,0.19991 -0.593152,0.60129 -0.442822,0.894569 l 1.424309,2.793297 c 0.148528,0.293233 0.591341,0.364005 0.988576,0.159959 l 2.250654,-1.147897 c 0.393163,-0.201548 0.592979,-0.605191 0.442041,-0.896223 l -1.426019,-2.795576 c -0.149301,-0.290969 -0.589016,-0.360103 -0.985456,-0.160193 l -2.251275,1.152056"
       style="fill:#1c4670;fill-opacity:1;fill-rule:nonzero;stroke:none;stroke-width:0.207989"
       id="path592" />
    <path
       d="m 32.87318,98.330723 c 0.246017,-0.372041 0.662028,-0.530596 0.937614,-0.35347 l 2.633156,1.702814 c 0.273779,0.181183 0.304725,0.628913 0.06203,1.001053 l -1.373433,2.12377 c -0.24128,0.36962 -0.662893,0.5295 -0.938442,0.34692 l -2.632287,-1.70132 c -0.277048,-0.17884 -0.300582,-0.62642 -0.06203,-0.99606 l 1.373147,-2.123777"
       style="fill:#1c4670;fill-opacity:1;fill-rule:nonzero;stroke:none;stroke-width:0.207989"
       id="path594" />
    <path
       d="m 46.24629,77.666525 c -0.238947,0.3729 -0.211278,0.817367 0.06554,0.998558 l 2.633984,1.699693 c 0.271446,0.178608 0.690562,0.02419 0.932838,-0.349491 l 1.375432,-2.122094 c 0.237917,-0.373758 0.212745,-0.818826 -0.06289,-0.997723 l -2.63267,-1.706091 c -0.277049,-0.17221 -0.697195,-0.02107 -0.937622,0.351909 l -1.374605,2.125231"
       style="fill:#1c4670;fill-opacity:1;fill-rule:nonzero;stroke:none;stroke-width:0.207989"
       id="path596" />
    <path
       d="m 40.935275,97.865235 c -4.80103,-0.239783 -8.493464,-4.335334 -8.252196,-9.133035 0.244613,-4.80477 4.335128,-8.499082 9.135322,-8.25532 4.800814,0.2454 8.496585,4.334506 8.25054,9.139277 -0.243777,4.796031 -4.326404,8.494299 -9.133666,8.249078 z m 1.11212,-21.899854 c -7.29253,-0.365643 -13.50705,5.245913 -13.873536,12.533661 -0.372907,7.294404 5.236348,13.507258 12.533042,13.876858 7.291082,0.37041 13.501447,-5.243621 13.871873,-12.533031 0.371268,-7.29253 -5.237184,-13.500602 -12.531379,-13.877488"
       style="fill:#1c4670;fill-opacity:1;fill-rule:nonzero;stroke:none;stroke-width:0.207989"
       id="path598" />
    <path
       d="m 74.66372,113.13375 c -0.493922,-1.55597 0.586543,-1.11315 1.285993,-0.14622 0.700308,0.96923 5.857826,7.04877 8.718517,-0.81349 3.002119,-7.80522 -4.886099,-6.60117 -6.047932,-6.33307 -1.161818,0.2706 -2.266669,-0.10152 -0.868554,-0.95218 1.763957,-1.06512 5.397945,-3.07179 9.999723,-0.95946 4.869262,2.23423 3.728434,7.94333 2.797465,10.44337 -0.938452,2.49817 -3.827632,7.55419 -8.960615,6.04876 -4.86259,-1.42682 -6.287741,-5.32245 -6.924597,-7.28775"
       style="fill:#1c4670;fill-opacity:1;fill-rule:nonzero;stroke:none;stroke-width:0.207989"
       id="path600" />
    <path
       d="m 132.87068,134.89696 c 1.39666,-0.85209 0.29323,-1.22027 -0.86607,-0.9505 -1.16433,0.26498 -9.05004,1.47298 -6.05207,-6.3387 2.85673,-7.8566 8.01571,-1.77458 8.7185,-0.80926 0.70367,0.96527 1.78018,1.40788 1.28122,-0.15044 -0.6279,-1.95718 -2.05951,-5.85449 -6.91149,-7.28358 -5.14776,-1.50398 -8.028,3.54871 -8.96873,6.04625 -0.92702,2.49588 -2.0693,8.20914 2.79891,10.44337 4.60095,2.11733 8.23599,0.11041 9.99973,-0.95717"
       style="fill:#1c4670;fill-opacity:1;fill-rule:nonzero;stroke:none;stroke-width:0.207989"
       id="path602" />
    <path
       d="m 122.14299,122.50951 -1.20239,3.22634 -31.256289,-11.68569 1.204881,-3.2255 31.253798,11.68485"
       style="fill:#1c4670;fill-opacity:1;fill-rule:nonzero;stroke:none;stroke-width:0.207989"
       id="path604" />
    <path
       d="m 119.73488,128.96365 1.20572,-3.2278 -31.256289,-11.68569 -1.206341,3.22633 31.25691,11.68716"
       style="fill:#1c4670;fill-opacity:1;fill-rule:nonzero;stroke:none;stroke-width:0.207989"
       id="path606" />
    <path
       d="m 132.00461,133.94646 c 1.15934,-0.26975 2.26273,0.0985 0.86607,0.9505 -1.76374,1.06761 -5.39878,3.0745 -9.99973,0.95717 -4.86821,-2.23422 -3.72593,-7.9475 -2.79891,-10.44337 l 5.8805,2.197 c -2.99797,7.81168 4.88774,6.60367 6.05207,6.3387"
       style="fill:#1c4670;fill-opacity:1;fill-rule:nonzero;stroke:none;stroke-width:0.207989"
       id="path608" />
    <path
       d="m 81.588317,120.42151 c -4.86259,-1.42682 -6.287741,-5.32245 -6.924597,-7.28776 -0.493922,-1.55597 0.586543,-1.11315 1.285993,-0.14622 0.700308,0.96923 5.857826,7.04877 8.718517,-0.81349 l 5.880702,2.19866 c -0.938452,2.49817 -3.827632,7.5542 -8.960615,6.04876"
       style="fill:#1c4670;fill-opacity:1;fill-rule:nonzero;stroke:none;stroke-width:0.207989"
       id="path610" />
    <path
       d="m 115.31427,93.14969 -2.50149,-0.931999 -10.73352,28.709019 2.4967,0.93367 10.73831,-28.71069"
       style="fill:#ff9955;fill-opacity:1;fill-rule:nonzero;stroke:none;stroke-width:0.207989"
       id="path612" />
    <path
       d="m 115.31427,93.14969 2.49173,0.931804 -10.73977,28.713166 -2.49027,-0.93428 10.73831,-28.71069"
       style="fill:#ff7f2a;fill-opacity:1;fill-rule:nonzero;stroke:none;stroke-width:0.207989"
       id="path614" />
    <path
       d="m 114.10522,96.37103 c 0,0 -4.42933,-2.449487 -3.71926,-4.473437 0.70678,-2.017285 5.60594,-7.839333 7.98721,-6.948931 l -4.26795,11.422368"
       style="fill:#ff9955;fill-opacity:1;fill-rule:nonzero;stroke:none;stroke-width:0.207989"
       id="path616" />
    <path
       d="m 114.10522,96.37103 c 0,0 4.95038,1.054512 5.74177,-0.937609 0.79141,-1.987963 0.91974,-9.594357 -1.47382,-10.484759 l -4.26795,11.422368"
       style="fill:#ff7f2a;fill-opacity:1;fill-rule:nonzero;stroke:none;stroke-width:0.207989"
       id="path618" />
    <path
       d="m 100.84754,145.91231 c -0.953835,2.54641 -3.795807,3.8397 -6.344507,2.88918 -2.547882,-0.953 -3.843667,-3.7958 -2.891482,-6.34202 l 8.559199,-22.88864 c 0.95155,-2.55681 3.79186,-3.84782 6.34202,-2.89564 2.55287,0.95301 3.84469,3.7902 2.89002,6.34369 l -8.55525,22.89343"
       style="fill:#aebfce;fill-opacity:1;fill-rule:nonzero;stroke:none;stroke-width:0.207989"
       id="path620" />
    <path
       d="m 96.131173,147.09785 c -0.212004,0.5597 -0.769363,0.86918 -1.247102,0.68634 -0.483389,-0.17221 -0.69867,-0.77748 -0.494781,-1.33488 l 9.51491,-25.45024 c 0.21106,-0.55486 0.76772,-0.87086 1.24939,-0.68806 0.47684,0.18119 0.70117,0.77335 0.49393,1.32906 l -9.516362,25.45773"
       style="fill:#768296;fill-opacity:1;fill-rule:nonzero;stroke:none;stroke-width:0.207989"
       id="path622" />
    <path
       d="m 99.322558,146.79876 c -0.208805,0.56134 -0.766867,0.87106 -1.246268,0.68571 -0.480189,-0.1786 -0.697811,-0.77521 -0.489162,-1.33903 l 9.513242,-25.44775 c 0.20802,-0.55907 0.76686,-0.8669 1.2471,-0.68657 0.48082,0.17946 0.70281,0.78245 0.49065,1.33987 l -9.515538,25.44774"
       style="fill:#768296;fill-opacity:1;fill-rule:nonzero;stroke:none;stroke-width:0.207989"
       id="path624" />
    <path
       d="m 92.177915,144.12421 c -0.205684,0.56704 0.01092,1.16413 0.493142,1.33884 0.480033,0.18282 1.03662,-0.12266 1.245441,-0.68657 l 9.514692,-25.44692 c 0.20889,-0.56134 -0.009,-1.15705 -0.49064,-1.33987 -0.48198,-0.18282 -1.03828,0.13085 -1.24564,0.69071 l -9.516995,25.44379"
       style="fill:#768296;fill-opacity:1;fill-rule:nonzero;stroke:none;stroke-width:0.207989"
       id="path626" />
    <path
       d="m 111.79384,121.26407 c -0.47137,1.26416 -1.87919,1.90436 -3.14834,1.43222 l -7.68897,-2.87442 c -1.266659,-0.47355 -1.908508,-1.88417 -1.435747,-3.15312 0.471293,-1.25771 1.880847,-1.90435 3.146677,-1.43076 l 7.69395,2.87441 c 1.26583,0.47614 1.90603,1.88252 1.43243,3.15167"
       style="fill:#768296;fill-opacity:1;fill-rule:nonzero;stroke:none;stroke-width:0.207989"
       id="path628" />
    <path
       d="m 111.10165,120.39218 c -0.3665,0.97588 -1.53808,1.43721 -2.62172,1.0335 l -6.5656,-2.45843 c -1.08217,-0.4056 -1.66642,-1.52021 -1.3016,-2.48943 0.36229,-0.97735 1.53475,-1.43493 2.61609,-1.03185 l 6.56811,2.45449 c 1.08362,0.40794 1.66953,1.51999 1.30472,2.49172"
       style="fill:#768296;fill-opacity:1;fill-rule:nonzero;stroke:none;stroke-width:0.207989"
       id="path630" />
    <path
       d="M 88.767909,64.024491 78.976171,47.067717 C 78.579707,46.382811 77.789182,46.081429 77.05955,46.269034 76.332399,46.081429 75.539562,46.3828 75.142926,47.067717 l -9.790907,16.956774 c -0.476092,0.819903 -0.191802,1.871911 0.626423,2.346544 0.823053,0.471918 1.874195,0.193199 2.349656,-0.632111 l 8.731413,-15.116697 8.733902,15.116697 c 0.473791,0.825303 1.522693,1.104006 2.346544,0.632111 0.818046,-0.474571 1.101501,-1.526649 0.627898,-2.346544"
       style="fill:#1c4670;fill-opacity:1;fill-rule:nonzero;stroke:none;stroke-width:0.207989"
       id="path632" />
    <path
       d="m 79.132167,65.925725 c 0,1.143949 -0.927841,2.073451 -2.072617,2.073451 -1.144771,0 -2.071784,-0.929502 -2.071784,-2.073451 V 42.310784 c 0,-1.141447 0.927013,-2.071785 2.071784,-2.071785 1.144776,0 2.072617,0.930338 2.072617,2.071785 v 23.614941"
       style="fill:#1c4670;fill-opacity:1;fill-rule:nonzero;stroke:none;stroke-width:0.207989"
       id="path634" />
    <path
       d="m 105.05289,40.1375 c 0,1.617535 -1.32114,2.940974 -2.94264,2.940974 H 52.008235 c -1.618374,0 -2.942024,-1.323439 -2.942024,-2.940974 V 6.799041 c 0,-1.6169124 1.32365,-2.9395181 2.942024,-2.9395181 h 50.102015 c 1.6215,0 2.94264,1.3226057 2.94264,2.9395181 V 40.1375"
       style="fill:#aebfce;fill-opacity:1;fill-rule:nonzero;stroke:none;stroke-width:0.207989"
       id="path636" />
    <path
       d="M 69.97812,36.528463 H 66.238473 V 23.254561 h 3.739647 v 13.273902"
       style="fill:#ff7f2a;fill-opacity:1;fill-rule:nonzero;stroke:none;stroke-width:0.207989"
       id="path638" />
    <path
       d="M 76.462409,36.528463 H 72.721085 V 17.198524 h 3.741324 v 19.329939"
       style="fill:#ff7f2a;fill-opacity:1;fill-rule:nonzero;stroke:none;stroke-width:0.207989"
       id="path640" />
    <path
       d="m 84.608117,36.528463 h -3.736533 v -9.438364 h 3.736533 v 9.438364"
       style="fill:#ff7f2a;fill-opacity:1;fill-rule:nonzero;stroke:none;stroke-width:0.207989"
       id="path642" />
    <path
       d="M 91.921045,36.528463 H 88.183669 V 23.254561 h 3.737376 v 13.273902"
       style="fill:#ff7f2a;fill-opacity:1;fill-rule:nonzero;stroke:none;stroke-width:0.207989"
       id="path644" />
    <path
       d="m 90.05412,15.212015 -3.180788,1.869412 1.208002,0.66536 -5.445792,6.693109 -7.794829,-13.479397 -8.253029,10.885972 0.82719,0.420138 7.312916,-9.648851 7.763835,13.428439 6.400678,-7.855771 1.195112,0.658914 -0.03277,-3.637325"
       style="fill:#ffffff;fill-opacity:1;fill-rule:nonzero;stroke:none;stroke-width:0.207989"
       id="path646" />
    <path
       d="M 62.720528,39.580088 H 61.607372 V 10.960499 h 1.113156 v 28.619589"
       style="fill:#ffffff;fill-opacity:1;fill-rule:nonzero;stroke:none;stroke-width:0.207989"
       id="path648" />
    <path
       d="m 95.2911,36.528463 v 1.014781 H 58.828002 V 36.528463 H 95.2911"
       style="fill:#ffffff;fill-opacity:1;fill-rule:nonzero;stroke:none;stroke-width:0.207989"
       id="path650" />
    <path
       d="m 106.96536,4.2942212 c 0,1.6264787 -1.31782,2.9395181 -2.94348,2.9395181 H 50.095561 c -1.622322,0 -2.93931,-1.3130394 -2.93931,-2.9395181 0,-1.6241922 1.316988,-2.9411831 2.93931,-2.9411831 h 53.926319 c 1.62566,0 2.94348,1.3169909 2.94348,2.9411831"
       style="fill:#1c4670;fill-opacity:1;fill-rule:nonzero;stroke:none;stroke-width:0.207989"
       id="path652" />
    <path
       d="m 118.83616,113.01666 -1.21132,-1.1269 c 9.60974,-10.33521 14.90453,-23.80253 14.90453,-37.92066 0,-13.205675 -4.70577,-26.007652 -13.24541,-36.05293 l 1.26167,-1.073227 c 8.79401,10.343329 13.63643,23.529663 13.63643,37.126157 0,14.540554 -5.4485,28.40514 -15.3459,39.04756"
       style="fill:#768296;fill-opacity:1;fill-rule:nonzero;stroke:none;stroke-width:0.207989"
       id="path654" />
    <path
       d="m 21.137149,73.9691 h -1.65663 c 0,-18.521687 9.023216,-36.003429 24.138236,-46.756286 l 0.957794,1.34382 C 29.897882,39.005621 21.137149,55.979658 21.137149,73.9691"
       style="fill:#768296;fill-opacity:1;fill-rule:nonzero;stroke:none;stroke-width:0.207989"
       id="path656" />
    <path
       d="m 76.830559,131.31975 c -10.64991,0 -21.049395,-2.94097 -30.070947,-8.50636 l 0.871886,-1.41039 c 8.75575,5.40358 18.856356,8.26094 29.199061,8.26094 4.348232,0 8.675248,-0.50289 12.861039,-1.49086 l 0.379532,1.60963 c -4.311004,1.02122 -8.764067,1.53704 -13.240618,1.53704"
       style="fill:#768296;fill-opacity:1;fill-rule:nonzero;stroke:none;stroke-width:0.207989"
       id="path658" />
    <path
       d="m 98.70837,24.115847 c -3.201786,0 -6.216186,1.247937 -8.482032,3.514609 -2.262718,2.263553 -3.509821,5.275242 -3.509821,8.478075 0,3.202626 1.247103,6.214526 3.51231,8.477868 2.265019,2.270831 5.279208,3.517314 8.479543,3.517314 3.2043,0 6.21702,-1.246483 8.48286,-3.517314 4.67499,-4.673944 4.67499,-12.280335 0,-16.955943 -2.26584,-2.266672 -5.27856,-3.514609 -8.48286,-3.514609 z m 0,28.950292 c -4.529391,0 -8.786735,-1.76396 -11.988739,-4.967417 -3.201787,-3.200337 -4.968046,-7.459967 -4.968046,-11.990191 -0.0017,-4.530429 1.763755,-8.790059 4.966594,-11.992684 3.202621,-3.198674 7.459138,-4.962635 11.990191,-4.962635 4.52856,0 8.79006,1.763961 11.9902,4.962635 6.61345,6.614071 6.61345,17.371091 0,23.982875 -3.20014,3.203457 -7.45998,4.967417 -11.9902,4.967417"
       style="fill:#1c4670;fill-opacity:1;fill-rule:nonzero;stroke:none;stroke-width:0.207989"
       id="path660" />
    <path
       d="m 114.78286,55.695336 -7.78901,-7.7915 3.51315,-3.506706 7.78652,7.786717 -3.51066,3.511489"
       style="fill:#1c4670;fill-opacity:1;fill-rule:nonzero;stroke:none;stroke-width:0.207989"
       id="path662" />
    <path
       d="m 139.03966,71.071809 c 0.87833,0.873345 0.87833,2.302652 0,3.176002 l -2.19118,2.189503 c -0.87667,0.87585 -2.29849,0.87585 -3.17829,0 L 112.99477,55.756902 c -0.88083,-0.877301 -0.88083,-2.297455 0,-3.177459 l 2.18535,-2.187842 c 0.87751,-0.87439 2.30265,-0.87439 3.18079,0 l 20.67875,20.680208"
       style="fill:#ff7f2a;fill-opacity:1;fill-rule:nonzero;stroke:none;stroke-width:0.207989"
       id="path664" />
    <path
       d="m 115.63187,58.400658 -1.16911,-1.174726 5.36884,-5.362181 1.16828,1.170773 -5.36801,5.366134"
       style="fill:#1c4670;fill-opacity:1;fill-rule:nonzero;stroke:none;stroke-width:0.207989"
       id="path666" />
    <path
       d="m 117.48839,60.256342 -1.17078,-1.16911 5.36884,-5.366341 1.16827,1.166822 -5.36633,5.368629"
       style="fill:#1c4670;fill-opacity:1;fill-rule:nonzero;stroke:none;stroke-width:0.207989"
       id="path668" />
    <path
       d="m 132.19804,74.969328 -1.16765,-1.170783 5.368,-5.36883 1.17244,1.171602 -5.37279,5.368011"
       style="fill:#1c4670;fill-opacity:1;fill-rule:nonzero;stroke:none;stroke-width:0.207989"
       id="path670" />
    <path
       d="m 130.34798,73.109484 -1.17244,-1.168279 5.36552,-5.36884 1.17076,1.173272 -5.36384,5.363847"
       style="fill:#1c4670;fill-opacity:1;fill-rule:nonzero;stroke:none;stroke-width:0.207989"
       id="path672" />
  </g>
</svg>
