<?xml version="1.0" encoding="UTF-8" standalone="no"?>
<svg
   xmlns:dc="http://purl.org/dc/elements/1.1/"
   xmlns:cc="http://creativecommons.org/ns#"
   xmlns:rdf="http://www.w3.org/1999/02/22-rdf-syntax-ns#"
   xmlns:svg="http://www.w3.org/2000/svg"
   xmlns="http://www.w3.org/2000/svg"
   xmlns:sodipodi="http://sodipodi.sourceforge.net/DTD/sodipodi-0.dtd"
   xmlns:inkscape="http://www.inkscape.org/namespaces/inkscape"
   width="150mm"
   height="150mm"
   viewBox="0 0 150 150"
   version="1.1"
   id="svg3522"
   inkscape:version="1.0.1 (3bc2e813f5, 2020-09-07)"
   sodipodi:docname="discover.svg">
  <defs
     id="defs3516" />
  <sodipodi:namedview
     id="base"
     pagecolor="#ffffff"
     bordercolor="#666666"
     borderopacity="1.0"
     inkscape:pageopacity="0.0"
     inkscape:pageshadow="2"
     inkscape:zoom="1.4"
     inkscape:cx="222.21665"
     inkscape:cy="327.27533"
     inkscape:document-units="mm"
     inkscape:current-layer="layer1"
     inkscape:document-rotation="0"
     showgrid="false"
     inkscape:window-width="3840"
     inkscape:window-height="2093"
     inkscape:window-x="-9"
     inkscape:window-y="-9"
     inkscape:window-maximized="1" />
  <metadata
     id="metadata3519">
    <rdf:RDF>
      <cc:Work
         rdf:about="">
        <dc:format>image/svg+xml</dc:format>
        <dc:type
           rdf:resource="http://purl.org/dc/dcmitype/StillImage" />
        <dc:title></dc:title>
      </cc:Work>
    </rdf:RDF>
  </metadata>
  <g
     inkscape:label="Layer 1"
     inkscape:groupmode="layer"
     id="layer1">
    <path
       d="m 43.934216,77.759649 c 8.160709,3.708257 19.001231,5.965829 30.897378,5.965829 11.90242,0 22.742942,-2.257572 30.899466,-5.965829 -8.156524,-3.702013 -18.997046,-5.959585 -30.899466,-5.959585 -11.896147,0 -22.736669,2.257572 -30.897378,5.959585"
       style="fill:#1c5470;fill-opacity:1;fill-rule:nonzero;stroke:none;stroke-width:0.209034"
       id="path700" />
    <path
       d="m 93.918535,53.018328 c 2.086159,-3.446977 3.290189,-7.487615 3.290189,-11.812538 0,-12.621497 -10.232235,-22.849553 -22.853726,-22.849553 -12.617315,0 -22.847463,10.228056 -22.847463,22.849553 0,4.324923 1.197769,8.365561 3.290201,11.812538 6.172789,11.034922 7.424904,13.677112 7.498065,18.716936 0.117091,7.552414 0,13.583061 0,13.583061 h 12.059197 12.059198 c 0,0 -0.110794,-6.030647 0,-13.583061 0.0815,-5.039824 1.329465,-7.682014 7.504339,-18.716936"
       style="fill:#ff7f50;fill-opacity:1;fill-rule:nonzero;stroke:none;stroke-width:0.209034"
       id="path702" />
    <path
       d="m 74.354998,88.767384 h -8.570412 c 1.273022,6.904414 8.570412,6.904414 8.570412,6.904414 0,0 7.297391,0 8.572505,-6.904414 h -8.572505"
       style="fill:#002254;fill-opacity:1;fill-rule:nonzero;stroke:none;stroke-width:0.209034"
       id="path704" />
    <path
       d="m 89.907165,77.544342 c 0,2.190673 -1.774704,3.965376 -3.969575,3.965376 h -23.1631 c -2.192772,0 -3.969564,-1.774703 -3.969564,-3.965376 0,-2.192772 1.776792,-3.965394 3.969564,-3.965394 h 23.1631 c 2.194871,0 3.969575,1.772622 3.969575,3.965394"
       style="fill:#768296;fill-opacity:1;fill-rule:nonzero;stroke:none;stroke-width:0.209034"
       id="path706" />
    <path
       d="m 88.665504,76.766725 c 0,1.76426 -1.638841,3.189859 -3.653932,3.189859 H 63.700516 c -2.019271,0 -3.649741,-1.425599 -3.649741,-3.189859 0,-1.764242 1.63047,-3.187777 3.649741,-3.187777 h 21.311056 c 2.015091,0 3.653932,1.423535 3.653932,3.187777"
       style="fill:#aebfce;fill-opacity:1;fill-rule:nonzero;stroke:none;stroke-width:0.209034"
       id="path708" />
    <path
       d="m 89.907165,85.318325 c 0,2.192773 -1.774704,3.967476 -3.969575,3.967476 h -23.1631 c -2.192772,0 -3.969564,-1.774703 -3.969564,-3.967476 0,-2.192772 1.776792,-3.969574 3.969564,-3.969574 h 23.1631 c 2.194871,0 3.969575,1.776802 3.969575,3.969574"
       style="fill:#768296;fill-opacity:1;fill-rule:nonzero;stroke:none;stroke-width:0.209034"
       id="path710" />
    <path
       d="m 74.835778,2.1038109 c 0.859133,0 1.563578,0.7002682 1.563578,1.5656718 v 9.1222593 c 0,0.859135 -0.704445,1.557311 -1.563578,1.557311 -0.865402,0 -1.563579,-0.698176 -1.563579,-1.557311 V 3.6694827 c 0,-0.8654036 0.698177,-1.5656718 1.563579,-1.5656718"
       style="fill:#ff7f50;fill-opacity:1;fill-rule:nonzero;stroke:none;stroke-width:0.209034"
       id="path712" />
    <path
       d="m 54.097474,7.4906322 c 0.746249,-0.4327319 1.699447,-0.1755756 2.130057,0.5706736 l 4.561131,7.8994092 c 0.432732,0.746254 0.179776,1.699454 -0.570674,2.127972 -0.744162,0.43273 -1.70154,0.179776 -2.130057,-0.568599 L 53.526794,9.6227697 C 53.096196,8.876513 53.355364,7.9212296 54.097468,7.4906205"
       style="fill:#ff7f50;fill-opacity:1;fill-rule:nonzero;stroke:none;stroke-width:0.209034"
       id="path714" />
    <path
       d="m 38.827508,22.516024 c 0.434803,-0.744165 1.390076,-0.999187 2.13424,-0.568601 l 7.89941,4.559038 c 0.746255,0.432731 1.001277,1.387987 0.568599,2.136333 -0.428522,0.742072 -1.383808,0.999186 -2.127972,0.568541 l -7.901501,-4.561132 c -0.744162,-0.430597 -1.001271,-1.381715 -0.572746,-2.13424"
       style="fill:#ff7f50;fill-opacity:1;fill-rule:nonzero;stroke:none;stroke-width:0.209034"
       id="path716" />
    <path
       d="m 33.116686,43.168627 c 0,-0.861225 0.702359,-1.561486 1.565671,-1.561486 h 9.12226 c 0.859135,0 1.561488,0.700261 1.561488,1.561486 0,0.865403 -0.702353,1.563574 -1.561488,1.563574 h -9.12226 c -0.863312,0 -1.565671,-0.698171 -1.565671,-1.563574"
       style="fill:#ff7f50;fill-opacity:1;fill-rule:nonzero;stroke:none;stroke-width:0.209034"
       id="path718" />
    <path
       d="m 38.503508,63.906925 c -0.432732,-0.746249 -0.173494,-1.699441 0.570673,-2.134235 l 7.895221,-4.559038 c 0.752522,-0.432745 1.707808,-0.179791 2.136325,0.572738 0.434806,0.746249 0.175576,1.703642 -0.570673,2.130072 l -7.897318,4.561119 c -0.746255,0.430612 -1.70154,0.17771 -2.13424,-0.570674"
       style="fill:#ff7f50;fill-opacity:1;fill-rule:nonzero;stroke:none;stroke-width:0.209034"
       id="path720" />
    <path
       d="M 95.569901,7.4906322 C 94.827833,7.0579003 93.872541,7.3150566 93.437748,8.0613058 L 88.87871,15.960715 c -0.430594,0.746254 -0.17771,1.699454 0.572756,2.127972 0.75043,0.43273 1.703623,0.179776 2.132136,-0.568599 L 96.146838,9.6227697 C 96.57535,8.876513 96.322378,7.9212296 95.569866,7.4906205"
       style="fill:#ff7f50;fill-opacity:1;fill-rule:nonzero;stroke:none;stroke-width:0.209034"
       id="path722" />
    <path
       d="m 110.84196,22.516024 c -0.42853,-0.744165 -1.388,-0.999187 -2.13425,-0.568601 l -7.8994,4.559038 c -0.74417,0.432731 -1.001294,1.387987 -0.57482,2.136333 0.43479,0.742072 1.39633,0.999186 2.13842,0.568541 l 7.8994,-4.561132 c 0.74834,-0.430597 1.00337,-1.381715 0.57067,-2.13424"
       style="fill:#ff7f50;fill-opacity:1;fill-rule:nonzero;stroke:none;stroke-width:0.209034"
       id="path724" />
    <path
       d="m 116.54651,43.168627 c 0,-0.861225 -0.69817,-1.561486 -1.56357,-1.561486 h -9.116 c -0.86122,0 -1.5594,0.700261 -1.5594,1.561486 0,0.865403 0.69818,1.563574 1.5594,1.563574 h 9.116 c 0.8654,0 1.56357,-0.698171 1.56357,-1.563574"
       style="fill:#ff7f50;fill-opacity:1;fill-rule:nonzero;stroke:none;stroke-width:0.209034"
       id="path726" />
    <path
       d="m 111.16596,63.906925 c 0.43274,-0.746249 0.17343,-1.699441 -0.57275,-2.134235 l -7.89314,-4.559038 c -0.75043,-0.432745 -1.70572,-0.179791 -2.13842,0.572738 -0.42853,0.746249 -0.16936,1.703642 0.57482,2.130072 l 7.89941,4.561119 c 0.74207,0.430612 1.70571,0.17771 2.13005,-0.570674"
       style="fill:#ff7f50;fill-opacity:1;fill-rule:nonzero;stroke:none;stroke-width:0.209034"
       id="path728" />
    <path
       d="m 88.665504,84.54489 c 0,1.76216 -1.638841,3.189875 -3.653932,3.189875 H 63.700516 c -2.019271,0 -3.649741,-1.427715 -3.649741,-3.189875 0,-1.766341 1.63047,-3.196139 3.649741,-3.196139 h 21.311056 c 2.015091,0 3.653932,1.429798 3.653932,3.196139"
       style="fill:#aebfce;fill-opacity:1;fill-rule:nonzero;stroke:none;stroke-width:0.209034"
       id="path730" />
    <path
       d="m 47.048831,82.628043 -3.4846,-1.442325 10.067093,-24.316971 6.946216,11.105985 12.094733,-25.305698 10.395281,12.65704 11.505243,-26.511841 5.464173,10.217599 14.93552,-27.812029 3.32155,1.785153 L 100.02861,47.019031 94.926083,37.476619 84.070917,62.49177 73.520952,49.646596 61.020694,75.796808 54.316956,65.077523 47.048831,82.628043"
       style="fill:#1c4670;fill-opacity:1;fill-rule:nonzero;stroke:none;stroke-width:0.209034"
       id="path732" />
    <path
       d="M 122.18416,17.593267 121.7201,2.5490569 108.92511,10.471463 Z"
       style="fill:#1c4670;fill-opacity:1;fill-rule:nonzero;stroke:none;stroke-width:0.209034"
       id="path734" />
    <path
       d="m 105.78542,102.74345 h -0.61247 c 0.25917,-2.10709 0.52676,-4.176525 0.77759,-6.139365 0.53935,-4.136788 1.35456,-11.521972 -0.26965,-18.817267 -8.156528,3.68945 -18.974045,5.93866 -30.849301,5.93866 -11.87106,0 -22.690683,-2.24921 -30.845116,-5.93866 -1.624201,7.295295 -0.813147,14.680479 -0.271739,18.817267 0.25503,1.96284 0.518413,4.032275 0.777608,6.139365 h -0.612467 c -5.388905,-3.990487 -5.842512,6.4236 -3.597484,9.98137 1.868772,2.94739 1.906398,3.2714 3.026823,6.51353 0.836136,2.39553 2.2074,2.70908 3.359183,2.44987 0.144225,1.41935 0.269666,2.65475 0.359552,3.63721 0.493348,5.47251 13.647859,16.43637 16.634958,19.86873 2.78643,3.21494 7.449987,1.96282 8.942491,1.89802 1.513414,-0.0732 2.228312,-0.11079 2.228312,-0.11079 0,0 0.714897,0.0379 2.224124,0.11079 1.494593,0.0648 6.153974,1.31692 8.948773,-1.89802 2.984997,-3.43236 16.135373,-14.39622 16.630763,-19.86873 0.094,-0.98246 0.21949,-2.21786 0.35748,-3.63721 1.15806,0.25925 2.53142,-0.0545 3.36128,-2.44987 1.12252,-3.24213 1.16013,-3.56614 3.02682,-6.51353 2.24921,-3.55777 1.78725,-13.971857 -3.59748,-9.98137"
       style="fill:#1c4670;fill-opacity:1;fill-rule:nonzero;stroke:none;stroke-width:0.209034"
       id="path736" />
  </g>
</svg>
