<?xml version="1.0" encoding="UTF-8" standalone="no"?>
<svg
   xmlns:dc="http://purl.org/dc/elements/1.1/"
   xmlns:cc="http://creativecommons.org/ns#"
   xmlns:rdf="http://www.w3.org/1999/02/22-rdf-syntax-ns#"
   xmlns:svg="http://www.w3.org/2000/svg"
   xmlns="http://www.w3.org/2000/svg"
   xmlns:sodipodi="http://sodipodi.sourceforge.net/DTD/sodipodi-0.dtd"
   xmlns:inkscape="http://www.inkscape.org/namespaces/inkscape"
   version="1.1"
   id="svg2"
   xml:space="preserve"
   width="240"
   height="275"
   viewBox="0 0 240 275"
   sodipodi:docname="eonyx_icon.svg"
   inkscape:version="1.0.1 (3bc2e813f5, 2020-09-07)"
   inkscape:export-filename="C:\Users\Ant PC\Desktop\EonyxAssets\svg light\eonyx_icon.png"
   inkscape:export-xdpi="96"
   inkscape:export-ydpi="96">
   <metadata
   id="metadata8"><rdf:RDF><cc:Work
       rdf:about=""><dc:format>image/svg+xml</dc:format><dc:type
         rdf:resource="http://purl.org/dc/dcmitype/StillImage" /><dc:title /></cc:Work></rdf:RDF></metadata>
   <defs
   id="defs6">
    <clipPath
   clipPathUnits="userSpaceOnUse"
   id="clipPath18">
      <path
   d="M 0,576 H 720 V 0 H 0 Z"
   id="path16" />
    </clipPath>
  
      
      
      
      
      
      
      
      
      </defs>
  <sodipodi:namedview
   pagecolor="#ffffff"
   bordercolor="#666666"
   borderopacity="1"
   objecttolerance="10"
   gridtolerance="10"
   guidetolerance="10"
   inkscape:pageopacity="0"
   inkscape:pageshadow="2"
   inkscape:window-width="3840"
   inkscape:window-height="2093"
   id="namedview4"
   inkscape:document-rotation="0"
   showgrid="false"
   inkscape:zoom="1.2770833"
   inkscape:cx="480"
   inkscape:cy="384"
   inkscape:window-x="2391"
   inkscape:window-y="-9"
   inkscape:window-maximized="1"
   inkscape:current-layer="g12" />
  <g
   id="g10"
   inkscape:groupmode="layer"
   inkscape:label="eonyx"
   transform="matrix(1.3333333,0,0,-1.3333333,0,768)">
      <g
   id="g12"
   transform="matrix(2.7620789,0,0,2.7620789,-619.0999,-323.14026)"><g
   id="g53"><g
     id="g20"
     transform="translate(268.2234,281.7566)">
      <path
   d="M 0,0 C -0.115,-0.465 -0.249,-0.929 -0.453,-1.378 L -0.966,-2.51 c -1.58,-3.489 -0.216,-7.606 3.135,-9.461 v 0 l -13.669,-7.892 -15.716,9.073 c -1.651,-0.676 -2.993,-1.943 -3.73,-3.572 l -0.003,-0.006 c -0.658,-1.45 -1.719,-2.628 -2.976,-3.43 l 22.425,-12.946 31.985,18.946 z"
   style="fill:#f47d52;fill-opacity:1;fill-rule:nonzero;stroke:none"
   id="path22" /></g><g
     id="g24"
     transform="translate(256.7231,324.9872)">
      <path
   d="m 0,0 -9.487,-5.477 32.283,-18.533 -0.186,0.046 v -8.627 L 0.001,-20.565 c 0,-6.568 3.624,-12.6 9.422,-15.684 l 22.611,-12.027 v 29.781 z"
   style="fill:#f47d52;fill-opacity:1;fill-rule:nonzero;stroke:none"
   id="path26" /></g><g
     id="g28"
     transform="translate(262.2288,287.5411)">
      <path
   d="m 0,0 -8.289,3.757 c -2.131,0.965 -4.641,0.021 -5.607,-2.11 l -2.932,-6.471 c -1.179,-2.6 -3.342,-4.625 -6.014,-5.63 l -0.413,-0.155 c -0.015,-0.006 -0.031,-0.012 -0.047,-0.018 -2.341,-0.868 -4.814,0.98 -4.814,3.477 v 20.663 l 17.599,10.159 -9.486,5.405 -17.536,-10.124 -0.004,-36.16 c 0,-1.145 0.668,-2.184 1.709,-2.659 l 0.022,-0.01 1.896,-0.859 c 2.133,-0.967 4.573,0.051 5.548,2.18 1.182,2.583 3.338,4.595 5.998,5.596 l 0.412,0.155 c 2.672,1.006 5.635,0.908 8.236,-0.27 l 6.468,-2.932 c 2.131,-0.965 4.641,-0.021 5.607,2.11 L 2.11,-5.607 C 3.075,-3.476 2.131,-0.966 0,0"
   style="fill:#231f20;fill-opacity:1;fill-rule:nonzero;stroke:none"
   id="path30" /></g></g>
      </g>
      </g>
</svg>
