<?xml version="1.0" encoding="UTF-8" standalone="no"?>
<svg
   xmlns:dc="http://purl.org/dc/elements/1.1/"
   xmlns:cc="http://creativecommons.org/ns#"
   xmlns:rdf="http://www.w3.org/1999/02/22-rdf-syntax-ns#"
   xmlns:svg="http://www.w3.org/2000/svg"
   xmlns="http://www.w3.org/2000/svg"
   xmlns:sodipodi="http://sodipodi.sourceforge.net/DTD/sodipodi-0.dtd"
   xmlns:inkscape="http://www.inkscape.org/namespaces/inkscape"
   version="1.1"
   id="svg2"
   xml:space="preserve"
   width="1000"
   height="275"
   viewBox="0 0 1000 275"
   sodipodi:docname="eonyx.svg"
   inkscape:version="1.0.1 (3bc2e813f5, 2020-09-07)"
   inkscape:export-filename="C:\Users\Ant PC\Desktop\EonyxAssets\svg light\eonyx.png"
   inkscape:export-xdpi="96"
   inkscape:export-ydpi="96">
   <metadata
   id="metadata8"><rdf:RDF><cc:Work
       rdf:about=""><dc:format>image/svg+xml</dc:format><dc:type
         rdf:resource="http://purl.org/dc/dcmitype/StillImage" /><dc:title /></cc:Work></rdf:RDF></metadata>
   <defs
   id="defs6">
    <clipPath
   clipPathUnits="userSpaceOnUse"
   id="clipPath18">
      <path
   d="M 0,576 H 720 V 0 H 0 Z"
   id="path16" />
    </clipPath>
  </defs>
  <sodipodi:namedview
   pagecolor="#ffffff"
   bordercolor="#666666"
   borderopacity="1"
   objecttolerance="10"
   gridtolerance="10"
   guidetolerance="10"
   inkscape:pageopacity="0"
   inkscape:pageshadow="2"
   inkscape:window-width="3840"
   inkscape:window-height="2093"
   id="namedview4"
   inkscape:document-rotation="0"
   showgrid="false"
   inkscape:zoom="1.2770833"
   inkscape:cx="480"
   inkscape:cy="384"
   inkscape:window-x="2391"
   inkscape:window-y="-9"
   inkscape:window-maximized="1"
   inkscape:current-layer="g10" />
  <g
   id="g10"
   inkscape:groupmode="layer"
   inkscape:label="eonyx"
   transform="matrix(1.3333333,0,0,-1.3333333,0,768)">
      <g
   id="g12"
   transform="matrix(2.7620789,0,0,2.7620789,-619.0999,-323.14026)"><g
   id="g14"
   clip-path="url(#clipPath18)"><g
   id="g20"
   transform="translate(268.2234,281.7566)">
      <path
   d="M 0,0 C -0.115,-0.465 -0.249,-0.929 -0.453,-1.378 L -0.966,-2.51 c -1.58,-3.489 -0.216,-7.606 3.135,-9.461 v 0 l -13.669,-7.892 -15.716,9.073 c -1.651,-0.676 -2.993,-1.943 -3.73,-3.572 l -0.003,-0.006 c -0.658,-1.45 -1.719,-2.628 -2.976,-3.43 l 22.425,-12.946 31.985,18.946 z"
   style="fill:#f47d52;fill-opacity:1;fill-rule:nonzero;stroke:none"
   id="path22" /></g>
      <g
   id="g24"
   transform="translate(256.7231,324.9872)">
      <path
   d="m 0,0 -9.487,-5.477 32.283,-18.533 -0.186,0.046 v -8.627 L 0.001,-20.565 c 0,-6.568 3.624,-12.6 9.422,-15.684 l 22.611,-12.027 v 29.781 z"
   style="fill:#f47d52;fill-opacity:1;fill-rule:nonzero;stroke:none"
   id="path26" /></g>
      <g
   id="g28"
   transform="translate(262.2288,287.5411)">
      <path
   d="m 0,0 -8.289,3.757 c -2.131,0.965 -4.641,0.021 -5.607,-2.11 l -2.932,-6.471 c -1.179,-2.6 -3.342,-4.625 -6.014,-5.63 l -0.413,-0.155 c -0.015,-0.006 -0.031,-0.012 -0.047,-0.018 -2.341,-0.868 -4.814,0.98 -4.814,3.477 v 20.663 l 17.599,10.159 -9.486,5.405 -17.536,-10.124 -0.004,-36.16 c 0,-1.145 0.668,-2.184 1.709,-2.659 l 0.022,-0.01 1.896,-0.859 c 2.133,-0.967 4.573,0.051 5.548,2.18 1.182,2.583 3.338,4.595 5.998,5.596 l 0.412,0.155 c 2.672,1.006 5.635,0.908 8.236,-0.27 l 6.468,-2.932 c 2.131,-0.965 4.641,-0.021 5.607,2.11 L 2.11,-5.607 C 3.075,-3.476 2.131,-0.966 0,0"
   style="fill:#231f20;fill-opacity:1;fill-rule:nonzero;stroke:none"
   id="path30" /></g>
      <g
   id="g32"
   transform="translate(305.4539,293.6794)">
      <path
   d="M 0,0 H 23.869 C 21.489,5.77 17.578,8.655 12.135,8.655 H 11.733 C 6.32,8.655 2.409,5.77 0,0 m 12.358,15.883 c 7.168,0 12.938,-3.644 17.311,-10.931 1.366,-2.945 2.052,-5.696 2.052,-8.254 V -4.73 c 0,-2.201 -0.209,-3.301 -0.625,-3.301 H 0 c 2.29,-5.77 6.334,-8.655 12.135,-8.655 1.964,0 3.955,0.55 5.978,1.651 h 10.083 v -0.224 c -4.134,-5.77 -9.622,-8.654 -16.463,-8.654 -8.149,0 -14.262,4.253 -18.337,12.759 -0.832,2.38 -1.248,4.521 -1.248,6.424 v 1.428 c 0,6.663 3.361,12.225 10.082,16.686 3.392,1.666 6.767,2.499 10.128,2.499"
   style="fill:#231f20;fill-opacity:1;fill-rule:nonzero;stroke:none"
   id="path34" /></g>
      <g
   id="g36"
   transform="translate(347.6664,289.8873)">
      <path
   d="m 0,0 c 0,-5.741 3.034,-9.815 9.102,-12.225 l 3.568,-0.624 c 5.234,0 9.176,2.692 11.824,8.075 0.535,1.368 0.803,2.751 0.803,4.149 v 1.071 c 0,4.818 -2.618,8.551 -7.853,11.198 -1.427,0.535 -2.676,0.803 -3.747,0.803 h -1.695 c -5.503,0 -9.37,-3.242 -11.6,-9.725 z m 12.002,19.943 h 1.516 c 5.919,0 11.094,-2.766 15.526,-8.299 2.498,-3.747 3.748,-7.48 3.748,-11.198 v -1.071 c 0,-6.663 -3.184,-12.195 -9.548,-16.596 -3.42,-1.934 -6.468,-2.9 -9.145,-2.9 h -2.276 c -6.485,0 -11.943,3.241 -16.373,9.726 -1.815,3.301 -2.722,6.424 -2.722,9.368 v 1.874 c 0,7.05 3.747,12.789 11.243,17.222 3.033,1.249 5.71,1.874 8.031,1.874"
   style="fill:#231f20;fill-opacity:1;fill-rule:nonzero;stroke:none"
   id="path38" /></g>
      <g
   id="g40"
   transform="translate(383.8209,309.7854)">
      <path
   d="M 0,0 H 7.316 L 7.718,-0.402 V -3.748 C 11.584,-1.25 15.272,0 18.783,0 h 2.275 c 5.324,0 10.261,-2.707 14.811,-8.12 2.647,-3.391 3.972,-8.12 3.972,-14.187 v -17.311 l -0.402,-0.401 h -7.54 l -0.401,0.401 v 20.032 c 0,4.669 -2.499,8.209 -7.495,10.618 -1.161,0.565 -2.693,0.848 -4.597,0.848 -5.502,0 -9.25,-3.064 -11.241,-9.19 -0.299,-0.596 -0.447,-1.696 -0.447,-3.302 V -39.618 L 7.316,-40.019 H 0 l -0.402,0.401 v 39.216 z"
   style="fill:#231f20;fill-opacity:1;fill-rule:nonzero;stroke:none"
   id="path42" /></g>
      <g
   id="g44"
   transform="translate(424.6615,254.7955)">
      <path
   d="M 0,0 H 8.795 C 8.854,0 8.908,0.033 8.934,0.085 22.245,26.441 36.583,54.759 36.583,55.257 H 27.838 C 27.54,55.138 23.779,47.702 16.55,32.95 L 14.9,35.671 C 8.595,48.728 5.248,55.257 4.862,55.257 h -8.343 c 0,-0.417 5.145,-10.841 15.436,-31.274 L -0.139,0.226 C -0.191,0.123 -0.116,0 0,0"
   style="fill:#231f20;fill-opacity:1;fill-rule:nonzero;stroke:none"
   id="path46" /></g>
      <g
   id="g48"
   transform="translate(495.3138,304.3424)">
      <path
   d="M 0,0 -5.665,5.665 H -5.888 L -16.925,-5.427 -11.09,-11.27 Z"
   style="fill:#f47d52;fill-opacity:1;fill-rule:nonzero;stroke:none"
   id="path50" /></g>
      <g
   id="g52"
   transform="translate(481.0547,289.9043)">
      <path
   d="m 0,0 -5.993,6.001 -11.547,11.37 c -0.896,-1.835 -2.221,-4.501 -3.872,-7.802 l 9.438,-9.586 -14.231,-14.455 5.666,-5.666 h 0.223 L -6.085,-5.906 8.371,-20.138 h 0.223 l 5.665,5.666 -14.276,14.455 z"
   style="fill:#231f20;fill-opacity:1;fill-rule:nonzero;stroke:none"
   id="path54" /></g>
      </g>
      </g>
      </g>
</svg>
